<svg xmlns="http://www.w3.org/2000/svg" width="40" height="40" viewBox="0 0 40 40">
    <path fill="#FFF" fill-rule="nonzero" stroke="#FFF" stroke-width=".5" d="M32.122 28.558l1.963 5.42c.3.684.128 1.495-.426 1.964-.342.299-.769.47-1.196.47-.298 0-.597-.086-.896-.257l-7.043-4.097c-1.408.384-2.987.555-4.524.555-9.646 0-17.5-6.53-17.5-14.512S10.354 3.588 20 3.588s17.5 6.53 17.5 14.513c0 3.926-1.963 7.725-5.378 10.457zM20 5.296c-8.707 0-15.793 5.762-15.793 12.805 0 7.042 7.086 12.804 15.793 12.804 1.451 0 2.902-.17 4.268-.469l.256-.043c.214-.042.427 0 .64.086l7.342 4.268.043-.043c0-.042-.043-.042-.043-.085L30.33 28.6a.871.871 0 0 1 .299-.982l.128-.128c3.201-2.433 5.037-5.848 5.037-9.39 0-7.043-7.086-12.805-15.793-12.805z"/>
</svg>
