<svg xmlns="http://www.w3.org/2000/svg" width="44" height="44" viewBox="0 0 44 44">
    <g fill="none" fill-rule="nonzero">
        <path fill="#FF610A" d="M31.306 24.758c-2.52 3.015-5.039 6.033-7.59 9.029-.83.975-1.232.94-2.094 0-2.6-2.905-5.209-5.809-7.827-8.713a2.78 2.78 0 0 1-.34-.686c.251-.103.513-.174.78-.211 1.28-.023 2.555 0 3.835 0h.48v-.425V11.31a.722.722 0 0 1 .499-.78h7.02a.78.78 0 0 1 .46.834v12.551h4.348c.694.043.854.335.43.842z"/>
        <path fill="#EF4D33" d="M22.5 3C11.73 3 3 11.73 3 22.5S11.73 42 22.5 42 42 33.27 42 22.5C41.987 11.736 33.264 3.013 22.5 3zm0 35.49c-8.831 0-15.99-7.159-15.99-15.99S13.669 6.51 22.5 6.51s15.99 7.159 15.99 15.99c-.017 8.824-7.166 15.973-15.99 15.99z"/>
        <path fill="#EF4D33" d="M30.881 23.892h-4.348v-.534V11.33a.78.78 0 0 0-.46-.834h-7.02a.722.722 0 0 0-.5.78v12.866h-4.317c-.268.037-.53.108-.78.21.08.244.195.475.34.687 2.6 2.91 5.208 5.813 7.827 8.712.861.96 1.263.995 2.094 0 2.547-2.995 5.07-6.013 7.59-9.028.424-.472.264-.764-.426-.83z"/>
    </g>
</svg>
