<svg xmlns="http://www.w3.org/2000/svg" width="106" height="106" viewBox="0 0 106 106">
    <path fill="#FFF" fill-rule="nonzero" stroke="#FFF" stroke-linecap="round" stroke-linejoin="round" stroke-width="2" d="M96.885 66.27a45.926 45.926 0 0 0 2.418-14.711c0-25.511-20.754-46.264-46.264-46.264-25.511 0-46.265 20.753-46.265 46.264a45.95 45.95 0 0 0 2.399 14.655C5.373 69.864 3 74.99 3 80.662c0 11.052 8.99 20.043 20.042 20.043h10.671V60.62H23.042c-2.485 0-4.865.458-7.063 1.288a38.222 38.222 0 0 1-1.429-10.35c0-21.223 17.266-38.488 38.489-38.488 21.222 0 38.488 17.266 38.488 38.488a38.24 38.24 0 0 1-1.437 10.379 19.929 19.929 0 0 0-7.133-1.317h-10.67v40.085h10.671c11.052 0 20.042-8.991 20.042-20.043 0-5.643-2.349-10.746-6.115-14.392z"/>
</svg>
