<svg xmlns="http://www.w3.org/2000/svg" width="40" height="40" viewBox="0 0 40 40">
    <g fill="#FFF" fill-rule="nonzero" opacity=".5">
        <path d="M20.042 24.345a1.45 1.45 0 0 0-1.454 1.444v2.889a1.45 1.45 0 0 0 1.454 1.444 1.45 1.45 0 0 0 1.454-1.444v-2.889a1.45 1.45 0 0 0-1.454-1.444z"/>
        <path d="M29.495 15.371V9.594c0-5.185-4.232-9.388-9.453-9.388-5.22 0-9.452 4.203-9.452 9.388v5.777a13.896 13.896 0 0 0-3.66 15.366c2.093 5.382 7.304 8.93 13.112 8.93 5.809 0 11.02-3.548 13.113-8.93a13.896 13.896 0 0 0-3.66-15.366zM13.498 9.594c0-3.59 2.93-6.499 6.544-6.499 3.614 0 6.544 2.91 6.544 6.5v3.745a14.1 14.1 0 0 0-13.088 0V9.594zm6.544 27.191c-6.157 0-11.149-4.957-11.149-11.073 0-6.115 4.992-11.072 11.15-11.072 6.157 0 11.148 4.957 11.148 11.072 0 2.937-1.174 5.754-3.265 7.83a11.188 11.188 0 0 1-7.884 3.243z"/>
    </g>
</svg>
