<svg xmlns="http://www.w3.org/2000/svg" width="106" height="106" viewBox="0 0 106 106">
    <g fill="none" fill-rule="evenodd" transform="translate(3 2.63)">
        <rect width="97.712" height="97.712" x="1.119" y="1" stroke="#EEE" stroke-width="2" rx="4"/>
        <path fill="#EEE" d="M81.723 97.55c0 .74-.592 1.331-1.332 1.331H19.186c-.739 0-1.33-.591-1.33-1.33v-2.663c0-13.31 23.95-10.647 23.95-21.295 0 0-7.984-7.986-7.984-22.626 0-8.8 7.171-15.972 15.967-15.972s15.966 7.172 15.966 15.972c0 14.64-7.983 22.626-7.983 22.626 0 10.648 23.95 7.986 23.95 21.295v2.662"/>
    </g>
</svg>
