<svg xmlns="http://www.w3.org/2000/svg" width="402" height="43" viewBox="0 0 402 43">
    <g fill="#FFF" fill-rule="evenodd">
        <path d="M391.507 21.373c0-.615-.038-1.258-.112-1.93-.022-.165-.056-.307-.08-.467a11.939 11.939 0 0 1 .96 4.69c0 1.905-.496 3.375-1.232 4.515.025-.413.039-.838.039-1.289 0-.587-.028-1.217-.066-1.861.31-1.095.49-2.307.49-3.658zm-.567 3.914a26 26 0 0 1 .008 3.027 7.56 7.56 0 0 1-.802.995c.114-.81.193-1.653.23-2.537.217-.467.405-.963.564-1.485zm-.633 1.64c-.04.862-.128 1.68-.243 2.47-1.256 1.263-2.778 1.93-3.857 2.265 1.58-1.122 3.094-2.653 4.1-4.736zm-1.71-13.247c.245.021.496.042.73.073.138.21.264.443.395.669a14.617 14.617 0 0 0-1.11-.714c-.006-.007-.006-.02-.014-.028zm.152.39a4.235 4.235 0 0 0-.1-.258c.402.233.786.489 1.161.76.626 1.123 1.093 2.438 1.364 3.965-.48-1-1.088-1.927-1.837-2.734-.179-.581-.375-1.16-.588-1.733zm.64 1.891c.743.83 1.352 1.78 1.824 2.808.037.227.088.442.113.68.08.67.115 1.31.115 1.922 0 1.27-.161 2.422-.434 3.465a40.214 40.214 0 0 0-1.619-8.875zm-1.454-3.858c.482.473.927.99 1.329 1.572-.223-.031-.46-.045-.694-.069-.196-.496-.403-.999-.635-1.503zm.302 1.544c.053.003.104.01.155.012l.164.098a31.064 31.064 0 0 1 .682 1.946c-.103-.107-.223-.209-.327-.314a22.356 22.356 0 0 0-.674-1.742zm2.174 11.818c0-1.404-.093-2.9-.27-4.481a27.053 27.053 0 0 0-1.19-5.459c.11.105.224.203.327.313a39.705 39.705 0 0 1 1.651 9.253c-.154.53-.339 1.027-.55 1.502.015-.373.032-.745.032-1.128zm-9.658 5.377c5.605-1.813 9.165-5.944 9.165-10.588 0-.11 0-.22-.003-.329-.004-.076-.014-.15-.02-.225.066.425.129.856.18 1.293a40.07 40.07 0 0 1 .268 4.47c0 .44-.018.867-.033 1.289-1.032 2.22-2.648 3.827-4.311 4.973-.671.193-1.124.255-1.144.258-.047.006-4.403.805-8.136-.075a36.69 36.69 0 0 0 4.034-1.066zm4.671-22.937c1.854.016 3.652.26 5.357.783 6.133 1.877 9.728 6.213 9.87 11.896.003.107.003.216.003.324 0 .624-.044 1.245-.126 1.858.032-.279.05-.567.05-.851 0-1.185-.287-2.411-.858-3.672-2.542-5.572-7.59-8.889-13.693-9.532a14.866 14.866 0 0 0-.603-.806zm.657.88c6.058.66 11.055 3.958 13.577 9.49.568 1.249.851 2.464.851 3.64a7.193 7.193 0 0 1-.826 3.343 8.434 8.434 0 0 1-.609.999c.26-1.085.405-2.174.419-3.254v-.142c0-3.633-1.494-6.906-4.324-9.47-2.356-2.135-5.497-3.663-9.023-4.505-.021-.033-.042-.069-.065-.101zm.206.202c3.455.845 6.526 2.36 8.837 4.456 2.817 2.55 4.305 5.804 4.305 9.418 0 .047 0 .095-.005.142a14.678 14.678 0 0 1-.453 3.393c-.267.368-.563.72-.882 1.061.212-1.155.261-2.247.294-3.219.09-.465.139-.94.139-1.413 0-.27-.02-.538-.046-.806-.056-1.415-.672-3.421-2.319-5.454-.907-1.117-2.02-2.078-3.287-2.896-1.685-1.909-3.905-3.544-6.583-4.682zm10.231 19.138a8.673 8.673 0 0 0 1.793-3.61c-.037.928-.102 1.954-.312 3.037-.903.942-1.999 1.779-3.22 2.514a27.768 27.768 0 0 0 1.74-1.941zm-3.466-14.25c1.17.784 2.206 1.688 3.054 2.737 1.093 1.346 1.728 2.685 2.048 3.843-.065-.212-.13-.424-.21-.635-.79-2.04-2.299-3.823-4.33-5.238-.183-.24-.362-.476-.562-.708zm.704.89c1.934 1.388 3.363 3.117 4.127 5.083.276.723.453 1.455.53 2.18 0 .064.004.136.004.196 0 .15-.004.288-.015.422l-.08 1.444c0 .046 0 .095-.003.139-.255 1.35-.874 2.657-1.852 3.85a26.526 26.526 0 0 1-1.913 2.117c-.213.128-.422.254-.646.372 1.873-2.25 2.687-4.79 2.758-7.203.248-.88.386-1.617.43-2.137a5.43 5.43 0 0 0 .023-.574c0-1.21-.302-3.009-1.804-4.481a6.681 6.681 0 0 0-1.232-.946 6.749 6.749 0 0 0-.327-.461zm2.832 8.865c-.124 2.366-.979 4.836-2.848 7.024-.213.114-.432.222-.649.333 1.753-2.571 2.895-5.307 3.497-7.357zm.092-.623c0-.599-.045-1.184-.13-1.757-.302-2.01-1.118-4.028-2.374-5.885.402.26.777.537 1.099.855 1.48 1.458 1.777 3.239 1.777 4.434 0 .21-.007.4-.021.566-.035.46-.156 1.096-.35 1.846v-.059zm-10.43-13.96c2.57 1.092 4.71 2.642 6.363 4.45-.76-.47-1.58-.874-2.445-1.23a15.39 15.39 0 0 0-3.088-1.867c-.258-.459-.535-.912-.83-1.352zm4.09 3.363c.888.38 1.718.817 2.49 1.315.211.24.408.49.604.739a16.365 16.365 0 0 0-2.154-1.23c-.292-.29-.61-.557-.94-.824zm1.07.965c.77.378 1.491.8 2.157 1.257.131.171.259.335.379.503a9.608 9.608 0 0 0-1.638-.753c-.272-.35-.577-.684-.898-1.007zm2.88 4.99c-.365-1.425-1.021-2.721-1.916-3.89a9.048 9.048 0 0 1 1.662.801c1.301 1.884 2.138 3.937 2.448 5.983.086.568.13 1.152.13 1.747 0 .118-.012.236-.015.353-.585 2.092-1.77 4.99-3.632 7.69-.948.462-1.943.866-2.947 1.222.265-.257.481-.727.65-1.363 1.592-1.096 2.85-2.466 3.685-4.092a6.98 6.98 0 0 0 .752-3.206c0-.923-.168-1.885-.498-2.853a10.784 10.784 0 0 0-.32-2.393zm-3.71 12.608c-.161.591-.368 1.021-.611 1.256-.036.034-.076.065-.115.101-.132.047-.266.097-.4.139.095-.31.182-.634.264-.96.295-.172.584-.348.861-.536zm-.944.587c-.087.317-.171.633-.265.938-.78.262-1.567.487-2.344.684.49-.306.987-.648 1.488-1.057.385-.18.758-.365 1.121-.565zm-1.4.685c-.48.38-.964.708-1.437.994a35.018 35.018 0 0 1-3.199.641c-.537.081-1.153.075-1.816.022l.401-.145c2.235-.218 4.276-.737 6.052-1.512zm-6.312 1.531c-.112.042-.221.078-.325.114-.153-.014-.31-.036-.469-.055.268-.015.534-.036.794-.059zm9.231-4.226c2.27-2.543 3.47-5.531 3.47-8.496v-.027c.273.878.416 1.747.416 2.583a6.897 6.897 0 0 1-.742 3.172c-.82 1.596-2.053 2.941-3.605 4.023.072-.291.136-.615.192-.968.092-.101.179-.184.269-.287zm-.37.391c-.05.342-.112.654-.184.932-.276.19-.56.37-.86.54.043-.161.08-.328.116-.498.303-.294.62-.636.928-.974zm-1.009 1.052c-.039.159-.075.313-.117.472-.31.176-.625.345-.955.5.351-.296.708-.622 1.072-.972zm-2.635-20.485a15.726 15.726 0 0 1 2.817 1.673 19.148 19.148 0 0 0-2.35-.774c-.15-.303-.305-.602-.467-.9zm.506.98c.871.227 1.693.514 2.485.839.338.265.674.532.98.825a20.183 20.183 0 0 0-3.2-1.172c-.02-.022-.043-.047-.067-.069l-.198-.423zm.364.593c1.15.325 2.232.732 3.231 1.211.341.336.663.683.956 1.049a14.196 14.196 0 0 0-2.834-.65c-.41-.6-.866-1.127-1.353-1.61zm1.407 1.687c1.058.143 2.003.368 2.848.67.92 1.18 1.588 2.5 1.958 3.942.185.714.271 1.44.305 2.166-.074-.203-.143-.404-.23-.607-.925-2.122-2.509-4.001-4.437-5.411-.144-.259-.282-.523-.444-.76zm.534.91c1.857 1.39 3.39 3.224 4.286 5.288.117.27.214.537.305.806.003.094.017.187.017.282 0 2.95-1.195 5.924-3.452 8.448-.068.078-.134.139-.205.216.06-.432.104-.904.132-1.41.774-1.164 1.308-2.666 1.308-4.64a11.97 11.97 0 0 0-1.065-4.921c-.254-1.569-.71-2.918-1.326-4.07zm.988 13.767c-.03.497-.074.96-.137 1.378-.308.337-.62.67-.916.968.091-.442.174-.897.24-1.364.292-.29.563-.625.813-.982zm-.892 1.071c-.07.467-.152.922-.252 1.362-.446.442-.885.833-1.318 1.188-1.767.807-3.793 1.346-6.028 1.59a17.557 17.557 0 0 0 3.577-1.866c1.074-.311 2.69-.968 4.021-2.274zm-5.186 2.536c.02-.002.393-.058.958-.207a17.803 17.803 0 0 1-3.652 1.845c-.446.042-.904.074-1.363.094-1.652-.255-3.588-.811-5.72-1.59.478-.076.965-.156 1.46-.253 3.779.945 8.274.118 8.317.11zm-9.922.161c2.024.741 3.879 1.292 5.48 1.577a28.971 28.971 0 0 1-3.884-.146l-.352-.05a31.91 31.91 0 0 1-2.627-1.205 33.97 33.97 0 0 0 1.383-.176zm1.508 1.487c.028.003.052.008.08.01 1.48.155 2.906.2 4.277.142.205.031.422.075.618.097-.64.205-1.155.336-1.479.404-.798.18-2.008-.082-3.496-.653zm-3.046-1.298c.869.445 1.69.836 2.452 1.15-1.219-.187-2.609-.542-4.103-1.029a30.8 30.8 0 0 0 1.651-.121zm-1.847.13c1.68.555 3.225.944 4.56 1.126 1.631.652 2.968.96 3.848.762.347-.077.927-.222 1.645-.462.738.072 1.415.08 1.998-.01a35.002 35.002 0 0 0 2.989-.59c-3.535 2.017-7.071 1.556-12.788.417a41.054 41.054 0 0 1-3.15-1.225c.296-.004.595-.007.898-.018zm18.49.989c-.386.197-.784.378-1.193.55.03-.08.073-.158.102-.24.37-.1.733-.206 1.091-.31zm-1.176.333c-.038.087-.072.171-.116.255-.775.32-1.609.592-2.504.794a13.3 13.3 0 0 0 1.304-.72c.45-.1.886-.214 1.316-.33zm-1.544.383c-.45.27-.914.512-1.393.731-.565.12-1.146.22-1.754.282-1.488.151-3.059.109-4.702-.107 3.108-.069 5.618-.405 7.849-.906zm12.418-8.945a7.363 7.363 0 0 0 .766-2.423c-.314 2.224-1.142 4.34-2.29 5.992.34-.805.608-1.619.813-2.434.262-.37.506-.74.711-1.135zm-.815 1.268c-.229.87-.526 1.736-.903 2.586-.221.3-.458.576-.703.84.36-.82.588-1.623.739-2.403.316-.327.605-.666.867-1.023zm-.953 1.12a11.347 11.347 0 0 1-.814 2.477c-.76.782-1.603 1.38-2.504 1.71-1.04.378-2.047.745-3.07 1.087a24.6 24.6 0 0 0 .443-.537c.06-.053.134-.104.191-.155a19.632 19.632 0 0 0 2.377-2.011c1.276-.749 2.426-1.603 3.377-2.571zm-6.193 4.932c-.104.13-.213.258-.322.386-.115.036-.224.078-.34.112.226-.162.449-.33.662-.498zm-.302.154c-.186.143-.395.282-.594.416a3.855 3.855 0 0 1-.203.068c.274-.157.539-.318.797-.484zm2.875-2.375c-.487.471-1.02.94-1.6 1.39.369-.349.718-.708 1.03-1.071.196-.107.385-.21.57-.32zm-.74.403c-.415.473-.87.937-1.386 1.376.272-.349.53-.705.777-1.063.208-.101.407-.209.608-.313zm-.73.374c-.275.389-.563.775-.863 1.154-.518.365-1.068.709-1.655 1.03-.45.14-.91.272-1.374.396.11-.274.212-.563.308-.848.2-.168.396-.333.586-.51a28.845 28.845 0 0 0 2.997-1.222zM389.2 32.99c-.093.266-.188.53-.297.783-.377.103-.758.202-1.153.293a14.49 14.49 0 0 0 1.45-1.076zm.515-.54c-.121.11-.247.213-.365.318.024-.075.05-.144.076-.214.096-.03.191-.068.29-.104zm-.375.13c-.028.096-.062.186-.096.28-.547.465-1.116.888-1.71 1.262-2.388.549-5.092.912-8.499.958a29.817 29.817 0 0 1-4.745-1.139c5.553 1.093 9.024 1.46 12.538-.638a37.543 37.543 0 0 0 2.512-.722zm-17.208.855l-.16-.03c-.909-.185-1.911-.494-2.974-.891.489.022.987.04 1.494.04.956.419 1.89.794 2.81 1.12a112.88 112.88 0 0 1-1.17-.239zm15.113-22.046l.32.073c.048.102.091.205.14.303-.148-.134-.307-.252-.46-.376zm-1.56-2.64c.099.01.203.017.306.026.02.031.039.063.06.094-.043-.01-.088-.016-.133-.028l-.232-.092zm-.433-.04c.063.004.124.012.191.016.036.011.065.03.101.044a4.422 4.422 0 0 0-.292-.06zm-.128.046c.258.048.523.095.775.151.08.036.163.064.243.098.296.436.57.884.825 1.34-.256-.115-.526-.22-.794-.324-.335-.45-.68-.874-1.05-1.265zm1.125 1.365c.265.109.528.216.783.333.168.307.333.615.486.926-.126-.031-.257-.053-.385-.084-.07-.056-.135-.115-.207-.171-.218-.347-.445-.68-.677-1.004zm.82 1.233a.22.22 0 0 1 .032.006c.227.187.459.373.677.58-.145-.035-.293-.074-.438-.11-.092-.159-.182-.32-.27-.476zm.316.558l.444.116c.24.527.464 1.052.663 1.575a1.215 1.215 0 0 0-.075-.008c-.095-.051-.18-.112-.272-.163a22.286 22.286 0 0 0-.76-1.52zm.803 1.627c.025.012.044.028.069.044-.017-.004-.033-.007-.051-.007-.007-.014-.011-.025-.018-.037zm-1.575.034c.539.01 1.05.03 1.546.067.233.536.453 1.083.649 1.651a10.43 10.43 0 0 0-1.371-1.114c-.11-.07-.22-.123-.326-.187a9.53 9.53 0 0 0-.498-.417zm.727.627c.017.011.042.02.058.033.526.353 1.004.761 1.454 1.194.217.649.417 1.317.588 2.01a8.303 8.303 0 0 0-2.1-3.237zm-2.006-6.298c.207.26.41.529.602.803-.158-.019-.319-.035-.482-.047-.212-.08-.425-.159-.65-.235a10.506 10.506 0 0 0-.507-.48c.344-.013.696-.043 1.037-.041zm-.548.784c.072.016.15.031.223.045.367.386.717.802 1.047 1.245-.353-.138-.697-.285-1.07-.404a14.227 14.227 0 0 0-1.683-.424c-.4-.15-.805-.283-1.208-.404.91-.066 1.813-.098 2.691-.058zm-1.113.602c.435.098.867.212 1.29.349.407.132.788.291 1.17.442.213.29.42.591.62.904a13.866 13.866 0 0 0-3.08-1.695zm.271 2.01c1.164.124 2.283.327 3.353.594.267.473.518.968.745 1.485a12.968 12.968 0 0 0-2.834-1.08c-.41-.1-.85-.165-1.292-.227a12.076 12.076 0 0 0-1.56-.483 17.775 17.775 0 0 0-1.915-.347 20.831 20.831 0 0 1 3.503.058zm.265.895c.331.053.672.095.985.17 1 .248 1.972.631 2.9 1.118.009.028.023.06.034.09a23.048 23.048 0 0 0-1.608-.068 10.458 10.458 0 0 0-2.311-1.31zm2.163 1.374l.123.003c.104.08.202.16.304.241-.142-.08-.282-.17-.427-.244zm-5.956.46c2.137-.306 4.078-.46 5.815-.463.286.141.564.311.842.482 1.688 1.518 2.689 3.555 2.776 5.884.003.11.003.214.003.325 0 4.616-3.542 8.72-9.12 10.523-1.448.47-2.84.825-4.187 1.094-1.546-.39-7.409-2.65-14.419-6.473a253.32 253.32 0 0 1-3.538-2.427c5.652-2.873 11.235-5.63 15.456-7.582 2.295-.614 4.45-1.088 6.372-1.364zM362.753 25.82c6.564 3.524 11.99 5.627 13.64 6.076-.486.095-.967.176-1.447.248-2.155-.792-4.491-1.79-6.905-2.909a169.451 169.451 0 0 1-5.288-3.415zm5.77 3.712c2.193 1.004 4.313 1.9 6.285 2.627-.46.069-.914.122-1.365.17-1.525-.783-3.19-1.741-4.92-2.797zm-10.008-6.523c.948.663 1.924 1.333 2.91 2.003a125.697 125.697 0 0 1-3.213-1.85l.303-.153zm-.373.189c1.318.792 2.616 1.53 3.882 2.22a188.43 188.43 0 0 0 5.382 3.52c-3.439-1.611-7.001-3.423-10.382-5.168.37-.193.746-.384 1.118-.572zm-1.192.605c3.56 1.844 7.329 3.762 10.943 5.438 1.899 1.178 3.73 2.243 5.396 3.102a29.2 29.2 0 0 1-1.73.117 57.731 57.731 0 0 1-5.118-1.981c-2.39-1.297-4.872-2.846-7.457-4.659l-2.517-1.771c.162-.08.324-.16.483-.246zm10.118 7.018c1.48.629 2.923 1.19 4.283 1.645-.285.006-.57.019-.848.019a54.148 54.148 0 0 1-3.435-1.664zm-10.665-6.733c.114.084 2.542 1.791 2.542 1.791 2.325 1.627 4.568 3.046 6.731 4.259a98.503 98.503 0 0 1-8.082-4.108c-.254-.174-.504-.347-.758-.523-.031-.039-.512-.624-.953-1.155.173-.09.344-.175.52-.264zm1.83 2.378a96.876 96.876 0 0 0 8.172 4.07 53.678 53.678 0 0 0 3.916 1.944 27.876 27.876 0 0 1-1.544-.048 39.9 39.9 0 0 1-2.939-1.283c-2.493-1.365-5.09-2.982-7.604-4.683zm18.298 8.598c-2.14-.06-5-1.057-8.15-2.595.131.011.251.028.382.031 1.148.44 2.222.775 3.2.973l.154.031c.58.119 1.135.23 1.676.336 1.66.565 3.264.987 4.799 1.246-.663.001-1.344 0-2.061-.022zm-9.538-3.295a39.78 39.78 0 0 0 1.555.646c-.112-.008-.226-.022-.34-.027-.402-.197-.802-.406-1.215-.62zm-9.896-5.946l.469.27c2.372 1.621 4.82 3.18 7.2 4.537-2.087-1.056-4.283-2.306-6.484-3.652l-.688-.55-.497-.605zm1.618 1.496c2.435 1.476 4.86 2.826 7.123 3.908.736.405 1.471.786 2.192 1.144a28.64 28.64 0 0 1-2.957-.406l-.783-.532c.7.1 1.408.188 2.134.232v-.069a25.127 25.127 0 0 1-2.268-.255 100.321 100.321 0 0 1-5.441-4.022zm6.512 4.746c.952.179 1.94.31 2.974.39 3.219 1.582 6.146 2.618 8.33 2.679.88.022 1.704.023 2.498.015 1.81.27 3.53.333 5.155.167.501-.05.979-.128 1.446-.215-3.132 1.346-6.831 1.645-11.076.856-2.028-.383-3.948-.973-5.657-1.617a65.97 65.97 0 0 1-3.67-2.275zm25.456 1.259a19.45 19.45 0 0 1-2.012 1.148c.047-.1.09-.205.137-.31a14.987 14.987 0 0 0 1.583-.75l.292-.088zm-1.965.88c-.047.1-.095.21-.145.313a23.743 23.743 0 0 1-3.949 1.498c-4.05 1.14-7.973 1.144-11.7.387a45.951 45.951 0 0 1-3.626-1.836 33.593 33.593 0 0 0 5.248 1.457c4.39.82 8.2.476 11.404-.987a16.628 16.628 0 0 0 2.768-.833zm2.647-1.103c-1.08 1.227-2.328 2.349-3.752 3.242.373-.559.717-1.15 1.013-1.773.839-.41 1.6-.851 2.29-1.324.152-.045.3-.098.45-.145zm-6.724 2.98a23.477 23.477 0 0 0 3.891-1.469c-.308.642-.666 1.24-1.053 1.809-1.75 1.063-3.759 1.791-6.047 1.966-2.417.179-5.245-.56-8.226-1.862 3.649.702 7.482.674 11.435-.443zm10.04-4.15c.85-.313 1.655-.855 2.384-1.572-1.261 2.574-3.843 5.228-9.255 7.435-.655.267-1.315.487-1.975.677a12.964 12.964 0 0 0 1.69-2c1.516-.93 2.836-2.11 3.968-3.413 1.061-.354 2.11-.735 3.187-1.127zm-36.738-5.084c.102.066.202.131.312.193A104.79 104.79 0 0 0 364 31.317a26.979 26.979 0 0 1-2.107-.42 28.972 28.972 0 0 1-1.413-1.01 213.915 213.915 0 0 1-2.537-3.039zm4.348 4.309c-.073-.042-.159-.103-.235-.151.688.16 1.378.294 2.078.403.255.174.512.351.77.523a28.75 28.75 0 0 1-2.177-.515c-.171-.097-.32-.187-.436-.26zm.676.4c.674.183 1.37.337 2.088.477a69.032 69.032 0 0 0 3.473 2.172c-2.453-.954-4.424-2-5.561-2.65zm-2.285-1.434c.377.28.714.523 1.022.732-.17-.044-.334-.09-.502-.136l-.52-.596zm.605.691c.193.053.385.101.58.148.132.087.272.182.388.252.055.038.128.08.197.12-.33-.096-.657-.191-.972-.296-.062-.074-.127-.148-.193-.224zm.287.329c.365.12.747.228 1.128.339a41.512 41.512 0 0 0 6.184 2.93 45.08 45.08 0 0 0 3.716 1.923c-3.495-.75-6.81-2.168-9.889-3.938-.37-.394-.752-.814-1.14-1.254zm1.3 1.427c3.125 1.776 6.494 3.184 10.044 3.906 3.087 1.375 6.02 2.167 8.52 1.979 2.25-.168 4.226-.873 5.95-1.907a12.726 12.726 0 0 1-1.688 1.953c-8.084 2.237-16.35-1.234-22.19-5.277a23.147 23.147 0 0 1-.635-.654zm35.036-3.172c-1.42 3.103-3.773 6.01-6.808 8.249-3.102 2.29-6.46 3.536-9.707 3.696 1.682-.723 3.13-1.642 4.337-2.778a18.397 18.397 0 0 0 2.108-.705c5.57-2.274 8.157-5.022 9.384-7.673.24-.244.466-.507.686-.79zM376.315 40.64c-6.21-2.174-9.242-3.87-12.569-7.173 5.806 3.953 13.902 7.268 21.842 5.13-1.222 1.13-2.691 2.043-4.393 2.753-1.676.06-3.32-.166-4.88-.71zm-18.511-13.96c.005.006.012.01.016.016a.022.022 0 0 0-.011-.009l-.005-.006zm-1.983-2.295c.287.344.609.736.808.976-.384-.27-.761-.537-1.144-.805.115-.059.224-.116.336-.17zm-.403.204c.456.324.909.644 1.37.967.006.006.025.021.025.025a62.35 62.35 0 0 1-.84-.49c-.192-.16-.392-.324-.583-.486.014-.003.02-.011.028-.016zm.869.766c.216.126.428.249.645.372.137.17.257.319.391.48-.349-.287-.694-.569-1.036-.852zm-.96-.718c.091.08.19.16.286.238a34.196 34.196 0 0 1-.347-.205c.021-.01.042-.022.062-.033zm-.133.069c.247.15.493.297.744.445.523.439 1.055.88 1.606 1.321.03.035.058.073.087.108a133.84 133.84 0 0 1-2.722-1.73c.097-.046.19-.098.285-.144zm-.356.183c.968.63 1.945 1.247 2.924 1.851.895 1.083 1.712 2.06 2.47 2.957-1.524-1.166-3.483-2.775-5.647-4.563-.02-.025-.04-.055-.062-.083.108-.053.21-.107.315-.162zm.277.937c-.117-.147-.234-.302-.35-.452 2.199 1.81 4.166 3.424 5.67 4.561.22.257.437.506.645.75-.43-.12-.864-.245-1.295-.384a33.214 33.214 0 0 1-1.366-1.276c-.68-.674-1.648-1.553-2.816-2.564-.165-.211-.333-.421-.488-.635zm4.806 4.593c.412.131.826.25 1.243.362l.189.21c-.458-.151-.897-.31-1.33-.478l-.102-.094zm.257.228c.409.158.834.308 1.265.453.366.412.72.807 1.07 1.18-.457-.265-.91-.535-1.352-.813-.345-.276-.67-.548-.983-.82zm1.464 1.195c.338.209.682.41 1.03.612.175.188.346.364.522.543a40.633 40.633 0 0 1-1.552-1.155zm-5.832-5.108c1.057.917 1.933 1.717 2.56 2.342.382.38.808.77 1.249 1.17l-.635-.219c-.39-.278-.782-.555-1.168-.839a81.119 81.119 0 0 1-2.006-2.454zm3.389 3.438c.185.064.368.132.554.188.026.028.057.053.084.078-.203-.08-.4-.156-.6-.24-.01-.009-.024-.015-.038-.026zm.3.202c.16.07.322.137.493.2.23.2.472.401.715.608-.41-.265-.811-.535-1.208-.808zm-1.482-.96c.242.177.481.353.729.528l-.399-.142-.33-.386zm.45.524c.248.108.489.218.742.323.623.434 1.264.856 1.915 1.262a41.092 41.092 0 0 0 2.34 1.75c3.426 3.467 6.458 5.2 12.827 7.431 1.51.528 3.097.76 4.72.724-.131.053-.251.11-.385.163-6.655 2.512-15.448-4.035-22.159-11.653zm-4.033-4.842l.108.09c.165.225.35.458.518.686.093.12.192.24.285.364l-1.178-1.003c.092-.042.179-.09.267-.137zm-.333.175c.515.432.998.842 1.45 1.236A70.986 70.986 0 0 0 357.567 29a67.042 67.042 0 0 1-4.16-3.37l.695-.36zm-.762.389a66.589 66.589 0 0 0 4.437 3.581c.145.168.29.335.436.501-.027-.007-.05-.02-.073-.026-2.413-1.113-4.411-2.37-6.02-3.421.406-.21.812-.42 1.22-.635zm-1.289.672c1.41.915 3.113 1.996 5.128 2.998-1.89-.79-3.718-1.743-5.517-2.799.13-.065.263-.132.389-.199zm-8.089-2.098c.626-.454 1.258-.912 1.893-1.37h.005a77.883 77.883 0 0 1-4.226 3.051c.766-.55 1.538-1.108 2.328-1.68zm1.955-1.413l-.003.002.003-.002zm2.448-1.843v.002l-.03.023c.012-.008.02-.015.03-.025zm.221-.176l.017.013c-.059.042-.12.082-.178.127-.004-.003-.004-.004-.01-.006.058-.045.117-.093.171-.134zm.088-.071a.078.078 0 0 0 .021.015l-.037.028c-.003-.007-.014-.01-.02-.017.01-.01.02-.019.036-.026zm.217-.178a.123.123 0 0 1 .04.031 3.87 3.87 0 0 0-.177.122c-.01-.006-.017-.013-.026-.019.05-.045.109-.09.163-.134zm.066-.054c.017.01.028.023.042.032 0 .004-.006.008-.011.011a.572.572 0 0 0-.045-.035.037.037 0 0 0 .014-.008zm1.315-.78l.031.036-.045-.028a.025.025 0 0 1 .014-.008zm26.148-12.336c2.317-.108 4.46.11 6.423.562a29.35 29.35 0 0 0-1.777.249 30.103 30.103 0 0 0-1.64-.044 23.867 23.867 0 0 0-2.208-.243c-2.48-.154-5.114.302-7.838 1.17 2.32-.964 4.665-1.584 7.04-1.694zm-4.665-.713c3.88-1.835 7.58-1.841 10.693-.016.587.344 1.147.76 1.682 1.227-.344.015-.68.019-1.027.05-2.037-.495-4.268-.729-6.683-.615-2.604.12-5.175.845-7.71 1.973-.847.293-1.702.626-2.566.993 2.014-1.551 3.904-2.806 5.611-3.612zm-19.538 11.161c8.4-6.926 17.088-14.084 25.456-14.005 3.278.03 5.75 1.72 7.601 4.004-.347 0-.697.032-1.049.045a11.005 11.005 0 0 0-1.744-1.281c-3.132-1.837-6.852-1.834-10.754.01-1.777.841-3.745 2.164-5.85 3.795-4.517 1.955-9.202 4.84-13.804 7.988-.139-.095-.145-.1-.288-.201.143-.12.288-.238.432-.355zm-.488.4l.285.198c-.172.115-.34.236-.508.353l-.24-.171c.158-.128.309-.252.463-.38zm-.515.422c.076.059.155.115.233.17-.233.158-.464.317-.694.479-.058-.044-.114-.084-.171-.128.21-.17.42-.344.632-.521zm-.687.566c.055.044.112.08.168.123-.14.094-.274.192-.407.285a1.474 1.474 0 0 1-.105-.124c.112-.094.23-.187.344-.284zm-.398.327c.034.04.065.08.1.119-.01.006-.018.015-.029.021-.043-.03-.09-.06-.133-.091l.062-.049zm-.114.094c.04.028.083.059.128.087-.042.026-.08.053-.117.08-.033-.03-.068-.065-.101-.094.028-.025.059-.05.09-.073zm-.145.115c.036.028.069.06.102.092-.077.053-.156.109-.232.16a3.595 3.595 0 0 1-.11-.053c.08-.068.161-.135.24-.2zm-.302.247c.038.016.074.036.111.053a.242.242 0 0 0-.062.042.616.616 0 0 1-.083-.067l.034-.028zm-.088.072c.025.022.054.042.078.064-.17.118-.333.236-.5.351-.019-.009-.033-.021-.05-.034.159-.127.315-.252.472-.381zm-3.686-5.656a49.361 49.361 0 0 1 4.06 2.489s.907.642 1.82 1.282c-.154.128-.31.255-.465.38-.352-.254-.707-.501-1.057-.761a29.575 29.575 0 0 0-3.082-1.975c-.421-.481-.85-.947-1.276-1.415zm1.418 1.573a28.854 28.854 0 0 1 2.898 1.873c.349.257.699.5 1.044.752-.21.17-.417.345-.627.518a33.274 33.274 0 0 0-1.567-1.104 104.72 104.72 0 0 0-1.748-2.039zm1.907 2.23c.457.303.907.622 1.354.956-.112.09-.224.182-.335.274-.333-.412-.677-.821-1.02-1.23zm-7.856-8.281a72.281 72.281 0 0 1 4.204 4.224 50.078 50.078 0 0 0-5.025-2.375c-2.391-2.017-5.565-4.293-9.043-5.715-1.53-1.34-3-2.472-4.357-3.26a18.296 18.296 0 0 0-1.741-.904c4.705-.079 10.071 2.615 15.962 8.03zm-.66 1.986a51.197 51.197 0 0 1 5.01 2.39c.424.466.855.931 1.277 1.408a40.829 40.829 0 0 0-4.397-2.103 45.892 45.892 0 0 0-1.89-1.695zm2.024 1.82a40.314 40.314 0 0 1 4.4 2.14 95.27 95.27 0 0 1 1.745 2.021 30.297 30.297 0 0 0-1.697-1.024.54.54 0 0 0-.062-.07c-.86-.918-2.285-1.863-4.053-2.748-.107-.103-.22-.21-.333-.32zm4.616 3.313c.564.324 1.122.66 1.676 1.023.393.47.783.94 1.17 1.411-.03.022-.054.042-.08.063-.279-.193-.56-.382-.839-.57a74.132 74.132 0 0 1-1.927-1.927zm2.212 2.204c.17.112.333.226.498.338-.025.02-.05.043-.075.062a27.656 27.656 0 0 1-.423-.4zm-5.406-4.112a65.105 65.105 0 0 0-.935-.937c1.605.82 2.896 1.684 3.73 2.532-.81-.453-1.63-.86-2.45-1.242-.116-.116-.239-.238-.345-.353zm.488.493c.832.394 1.67.82 2.5 1.292.45.48 1.068 1.11 1.82 1.841a173.704 173.704 0 0 0-3.346-2.199c-.352-.327-.679-.64-.974-.934zm1.257 1.196c1.113.716 2.226 1.452 3.334 2.2.221.215.454.438.694.667-.085.071-.176.141-.26.213-.148-.075-.295-.151-.439-.221a81.544 81.544 0 0 1-3.329-2.86zm3.572 3.056l.139.07c-.008.007-.019.013-.025.02-.038-.027-.077-.06-.114-.09zM331.552 6.221c3.328 1.39 6.37 3.546 8.691 5.49a44.58 44.58 0 0 0-4.562-1.558c-.025-.016-.045-.031-.073-.045-1.367-1.395-2.732-2.718-4.056-3.887zm4.347 4.062c1.538.442 3.046.973 4.507 1.566a46.25 46.25 0 0 1 1.916 1.706 52.654 52.654 0 0 0-3.296-1.217 49.642 49.642 0 0 0-3.127-2.055zm3.714 2.329c.965.333 1.917.688 2.843 1.068.101.095.21.196.304.286-.96-.472-2.013-.93-3.147-1.354zm1.12.96c-.423-.31-.87-.635-1.334-.97 1.277.472 2.458.984 3.515 1.515.43.415.801.786 1.086 1.085l.22.224c-.595-.271-1.19-.526-1.78-.761-.365-.218-.725-.43-1.086-.64l-.62-.453zm2.053 1.301a39.39 39.39 0 0 1 1.574.693c.255.257.526.523.828.806-.803-.51-1.603-1.015-2.402-1.499zm-.644-.255c.089.036.177.073.267.107 1.017.612 2.038 1.253 3.06 1.909.951.879 2.094 1.87 3.378 2.926-.74-.37-1.454-.726-2.14-1.059a34.094 34.094 0 0 0-2.498-1.892c-.82-.842-1.52-1.532-2.067-1.99zm5.21 4.448c-.13-.123-.297-.261-.446-.39.7.339 1.429.703 2.18 1.081.11.092.225.184.337.274l-.47.382a25.928 25.928 0 0 1-1.6-1.347zm-2.899-2.208a36.184 36.184 0 0 1 2.003 1.519 18.78 18.78 0 0 1-.467-.221c-.378-.293-.751-.585-1.128-.872-.14-.146-.274-.288-.408-.426zm1.78 1.49c.147.07.292.14.438.214.232.193.448.381.64.556.451.418.99.868 1.59 1.338l-.01.01a226.41 226.41 0 0 0-2.659-2.117zm-.636-.301c.117.054.237.113.355.17.97.756 1.933 1.525 2.884 2.29-.06.047-.114.094-.171.14a300.98 300.98 0 0 1-1.719-1.206c-.474-.488-.924-.955-1.349-1.394zm2.498 2.286c.171.115.346.238.514.358a.094.094 0 0 1-.027.022c-.162-.126-.319-.252-.487-.38zm-.808-.546l1.244.971-.162.13c-.37-.376-.735-.745-1.082-1.101zm-2.102-2.168c.175.134.35.27.526.403-.084-.037-.165-.078-.248-.115-.095-.098-.185-.195-.278-.288zm-3.302-3.2c.047.026.097.053.145.082a.565.565 0 0 1-.068-.03c-.03-.018-.052-.037-.077-.052zm-6.082-4.115a48.42 48.42 0 0 1 2.988 1.951c-.495-.161-1-.312-1.497-.463-.037-.02-.073-.036-.11-.055-.46-.485-.92-.96-1.381-1.433zm1.972 1.74c.473.154.94.314 1.398.48a213.754 213.754 0 0 1 1.576 1.142 80.397 80.397 0 0 0-2.974-1.622zm-.427-.133c.02.005.042.013.061.02a76.955 76.955 0 0 1 3.913 2.152l.403.292c.006.003.011.011.013.013a42.016 42.016 0 0 0-1.543-.55 65.824 65.824 0 0 0-2.74-1.816 3.596 3.596 0 0 1-.107-.11zm3.043 2.067c.508.172 1.02.357 1.536.556.52.41 1.188 1.057 1.99 1.87-.53-.36-1.082-.73-1.684-1.104a93.11 93.11 0 0 0-1.842-1.322zm2.687 1.946c.381.25.739.495 1.09.738.105.107.212.22.324.333-.474-.364-.943-.72-1.414-1.071zm-5.43-3.695c.751.47 1.525.98 2.318 1.533-.29-.096-.577-.19-.863-.275-.17-.092-.352-.181-.528-.273-.307-.331-.615-.66-.928-.985zm1.764 1.426c.248.077.498.16.754.244.456.32.92.647 1.386.988a55.743 55.743 0 0 0-2.14-1.232zm-.563-.176c.076.022.159.048.236.073a54.06 54.06 0 0 1 3.104 1.798c.868.64 1.748 1.304 2.63 1.984.156.159.316.327.478.495-.412-.193-.81-.377-1.195-.548a198.714 198.714 0 0 0-5.253-3.802zm5.503 3.99c.347.158.707.321 1.076.497.01.008.015.016.026.026.355.37.732.763 1.127 1.168-.736-.564-1.48-1.13-2.229-1.69zm-.474-.214c.063.03.13.059.193.088.446.333.888.667 1.332 1.003-.54-.385-1.048-.747-1.525-1.091zm-4.888-3.596a197.93 197.93 0 0 1 4.827 3.496c-.07-.031-.135-.06-.207-.09l-.282-.203c-1.315-.944-2.356-1.688-2.937-2.071-.222-.145-.49-.304-.786-.467l-.615-.665zm.766.828c.221.126.425.246.601.365.577.378 1.619 1.125 2.934 2.068.01.005.017.012.023.017a30.21 30.21 0 0 0-2.036-.797c-.5-.548-1.007-1.095-1.522-1.653zm1.896 2.056l-.27-.294c.656.229 1.39.525 2.197.876.979.704 2.103 1.506 3.326 2.37.45.463.92.941 1.415 1.436-.368.294-.733.58-1.093.867a33.71 33.71 0 0 1-.381.272c-1.54-1.544-3.297-3.455-5.194-5.527zm-2.94-3.18c.01 0 .02.007.028.012l-.022-.005c0-.006-.003-.006-.006-.008zm-1.502-1.495h.005c.003.003.003.005.006.005-.003 0-.006-.005-.011-.005zm-16.795-5.55c6.17-.431 11.119 1.492 15.018 3.766a36.321 36.321 0 0 0-2.808-.66c-1.865-1.097-3.414-1.856-4.447-2.107-.976-.237-2.6-.476-4.501-.503a24.389 24.389 0 0 0-3.28-.496h.018zm12.376 3.206c.943.188 1.879.417 2.816.677.467.478.938.962 1.404 1.452-.305-.152-.607-.297-.912-.443-1.01-.578-1.949-1.043-2.8-1.381-.173-.104-.34-.207-.508-.305zm4.028 2.112c.02.01.042.019.058.031-.005-.005-.013-.006-.019-.01a.133.133 0 0 1-.039-.021zm-3.19-1.61c.47.203.972.455 1.49.726-.374-.168-.75-.336-1.12-.49-.123-.081-.246-.158-.37-.237zm.786.49c.546.239 1.097.49 1.659.759.165.093.34.198.509.3-.302-.088-.609-.166-.914-.249-.43-.28-.845-.55-1.254-.81zm1.497.97c.344.097.682.192 1.015.293.16.097.322.196.487.299.325.346.655.694.982 1.043-.083-.042-.163-.084-.248-.126a129.889 129.889 0 0 0-2.236-1.508zm-3.287-1.915s-.305-.106-.501-.172l.48.09c.111.064.225.133.334.2-.1-.034-.214-.086-.313-.118zm-1.926-.656c-2.165-.745-4.414-1.51-6.71-2.03 1.763.049 3.258.276 4.172.499.998.243 2.484.963 4.265 2.001-.251-.046-.505-.1-.758-.141-.481-.165-.969-.329-.969-.329zm.632.35c.11.015.212.027.32.047.477.164.957.324.957.324.21.068.442.167.67.258.12.07.237.144.355.217-.783-.32-1.548-.6-2.302-.845zm-.37-.052c.982.308 1.99.68 3.02 1.114.482.299.974.61 1.481.943a72.796 72.796 0 0 0-3.066-.758c-2.2-.764-4.469-1.324-6.702-1.575 1.73-.087 3.497.022 5.267.276zm2.224 1.595c.855.184 1.693.395 2.52.62.644.423 1.306.866 1.984 1.329a47.64 47.64 0 0 0-4.504-1.949zm-7.835-1.848c2.109.21 4.254.713 6.344 1.398a76.164 76.164 0 0 0-7.872-1.242 21.434 21.434 0 0 1 1.528-.156zm10.865 3.804c.78.19 1.594.405 2.432.654.024.02.05.037.079.056.227.246.46.495.686.741a28.226 28.226 0 0 0-3.197-1.45zm-9.414-1.23a20.18 20.18 0 0 1 1.833.044c1.058.066 3.698.298 7.05 1.065 1.573.576 2.908 1.19 3.88 1.735.536.575 1.06 1.147 1.584 1.717a12.83 12.83 0 0 0-.77-.241l-1.224-.343c-2.318-.653-4.883-1.372-7.555-1.928-2.068-.976-4.132-1.673-6.221-1.969.526-.037 1.01-.065 1.423-.08zm15.954 9.07c-3.696-2.612-7.287-5.15-10.877-6.889 2.565.547 5.027 1.235 7.26 1.862l1.227.344c.27.076.57.174.878.28l.362.392c1.894 2.064 3.65 3.974 5.186 5.52-.314.222-.625.444-.935.667a304.784 304.784 0 0 1-3.1-2.176zm-11.178-6.954c3.673 1.739 7.356 4.335 11.14 7.013 1.02.72 2.048 1.445 3.081 2.164-.627.451-1.254.902-1.875 1.352-1.214.88-2.402 1.737-3.561 2.57a37.179 37.179 0 0 1-3.426 1.919c-8.428 4.064-20.286 3.253-24.405-1.67-.12-.143-.205-.297-.31-.444a11.806 11.806 0 0 1-.186-2.048c0-1.038.126-2.128.376-3.244.595-2.635 2.053-5.662 4.455-7.623 4.75-1.436 9.91-.985 14.711.011zm15.152 11.637l-.195.133c-.021.009-.043.015-.065.026l.26-.159zm4.604-1.788a2.649 2.649 0 0 0-.173.101.083.083 0 0 1-.02-.02.026.026 0 0 0 .012-.01c.063-.024.119-.05.18-.071zm28.065-10.425c2.092-.786 4.512-.616 6.704.423-1.71.008-3.606.16-5.695.46-1.82.261-3.85.705-6.011 1.273 2.065-.95 3.79-1.7 5.002-2.156zm4.506-.94c.928.36 1.762.82 2.498 1.365-.054 0-.104-.005-.15-.005-2.24-1.097-4.73-1.291-6.879-.485-1.277.482-3.125 1.29-5.346 2.316-4.889 1.306-10.439 3.268-15.933 5.394 11.07-6.439 19.886-9.373 25.81-8.585zm-3.791-.87c.744.084 1.488.209 2.232.39.42.1.821.223 1.214.362-6.01-.638-14.847 2.394-25.89 8.87-.439.17-.884.342-1.326.52l-.125-.094c6.42-4.428 15.554-9.416 23.895-10.048zm-23.952 10.093c.036.025.072.05.104.077-.163.067-.325.13-.489.193.128-.092.254-.18.385-.27zm27.441-10.53c1.178.084 2.299.263 3.38.509.096.152.178.314.268.473a24.493 24.493 0 0 0-3.296-.58 21.178 21.178 0 0 0-3.838-.033 17.878 17.878 0 0 0-1.468-.102c1.818-.277 3.49-.38 4.954-.267zm-5.324.326c.474.007.944.035 1.414.075-8.249.763-17.207 5.676-23.531 10.047-.123-.087-.248-.173-.367-.26.356-.268.717-.534 1.075-.795 3.223-1.96 6.358-3.859 9.194-5.488 4.401-1.723 8.6-2.987 12.215-3.579zm-22.542 9.902c.12.088.243.173.366.259l-.41.29a26.04 26.04 0 0 1-.373-.24l.417-.309zm-.478.352c.123.08.25.159.374.238-.044.03-.089.063-.131.09-.453.181-.903.363-1.35.544a.17.17 0 0 1-.029-.016c.377-.286.758-.573 1.136-.856zm.368-.428c.012.011.03.025.05.038-.14.1-.28.202-.422.308a.833.833 0 0 0-.095-.063c.157-.094.312-.191.467-.283zm-.533.322c.034.024.072.044.103.069-.381.283-.76.57-1.14.86L354 22.2c-.049-.049-.092-.1-.144-.148.414-.254.824-.502 1.236-.75zm-1.309.866c.063.028.12.064.18.092.01.007.013.015.02.021-.007.005-.01.01-.018.013-.057-.042-.12-.083-.182-.126zm-.116 0l.244.17c-.039.026-.073.054-.112.08-.207.086-.425.17-.638.257-.044-.04-.089-.08-.137-.121l.643-.386zm-.702.423l.127.11c-.03.015-.054.024-.084.038l-.127-.097.084-.05zm-.144.087c.035.031.075.06.114.089a2.605 2.605 0 0 1-.123.051c-.025-.03-.05-.059-.073-.09.026-.016.054-.03.082-.05zm-.14.086c.017.025.044.054.063.08a5.492 5.492 0 0 1-.232.096c-.016-.013-.04-.025-.058-.038.08-.046.151-.095.227-.138zm-.292.176c.017.012.034.02.046.032-.077.03-.157.063-.232.094-.004-.002-.01-.003-.01-.006l.196-.12zm1.408-.855a.089.089 0 0 0 .02.022.132.132 0 0 1-.026-.016c.003-.001.006-.003.006-.006zm2.406-1.458c-.157.113-.315.232-.471.347l-.048-.033.52-.314zm9.434-5.723c-2.5 1.438-5.202 3.07-7.99 4.764 2.06-1.466 4.132-2.845 6.217-4.042a81.71 81.71 0 0 1 1.773-.722zm-10.738 5.564l.659.469c-.153.096-.309.19-.466.283-.238-.153-.478-.302-.714-.46l.521-.292zm-.587.329c.237.16.477.31.715.465-.405.246-.811.49-1.217.74-.15-.153-.302-.303-.453-.45.196-.184.395-.368.591-.548.12-.072.243-.137.364-.207zm-1.007.801c.148.143.3.291.444.439-.01.006-.02.014-.031.019-.12-.063-.235-.122-.355-.182a16.371 16.371 0 0 0-.205-.144c.048-.045.096-.091.147-.132zm-.225.206c.084.04.168.085.253.127l.271.193-.632.383c-.109-.1-.222-.2-.333-.296.148-.137.296-.272.44-.407zm-.489.45l.32.29c-.027.02-.058.035-.09.055-.11-.086-.222-.168-.333-.252l.103-.092zm-.051.216c.073.054.148.109.22.166l-.065.038c-.05-.069-.104-.136-.155-.204zm-.128-.052c.076.095.153.193.227.291-.082.05-.165.098-.25.151a5.384 5.384 0 0 0-.27-.177c.102-.09.197-.178.293-.265zm-.342.313c.085.055.17.11.256.168l-.199.12c-.068-.05-.146-.098-.211-.146.05-.045.1-.094.154-.142zm-.242.221c.06.047.117.095.176.14-.084.052-.165.1-.25.151a3.202 3.202 0 0 0-.131-.104c.068-.064.137-.125.205-.187zm-.253.232c.037.033.076.062.113.093-.13.053-.258.108-.389.16l.276-.253zm2.12-2.039l-.39.358c-.03-.033-.062-.059-.091-.09.157-.089.319-.178.48-.268zm-.547.307c.04.032.075.064.106.096-.048.05-.106.097-.15.14a2.609 2.609 0 0 1-.166-.113c.073-.04.142-.083.21-.123zm-.347.205c.072.036.145.075.216.112-.14.134-.289.262-.43.396-.086-.08-.17-.154-.253-.23.154-.094.308-.186.467-.278zm-.529.315l.265.24c-.036.029-.069.063-.103.094-.017-.014-.036-.026-.053-.039-.065-.082-.126-.166-.192-.25.028-.014.052-.03.083-.045zm-.142.082c.014.017.028.033.042.053a1.197 1.197 0 0 0-.057-.045.03.03 0 0 1 .015-.008zm-.079.045c.093.072.187.142.283.215.01.017.024.033.036.047-.103.096-.204.19-.305.281-.148-.098-.291-.196-.436-.294.142-.082.283-.168.422-.249zm-.49.288l.453.304c-.055.048-.106.096-.16.144a9.74 9.74 0 0 0-.323-.219c-.05-.04-.096-.08-.15-.12.06-.039.122-.073.18-.109zm-.262.156c.066.043.13.087.193.13l.285.234c-.068.064-.137.125-.205.188-.172-.137-.341-.272-.51-.412.077-.047.158-.095.237-.14zm-.302.177c.18.142.35.282.523.42-.13.123-.267.246-.401.372l-.04.013c-.184-.176-.37-.35-.552-.526.154-.094.313-.187.47-.279zm-.532.315c.179.172.364.344.546.52-.597.247-1.189.49-1.779.737-.12-.098-.233-.194-.358-.3.53-.318 1.054-.637 1.591-.957zm-1.653.994c.121.106.235.198.347.293-.208.085-.425.174-.63.263-.104-.069-.207-.13-.308-.198.194-.12.395-.24.591-.358zm-.655.394c.1.065.194.13.292.19-.356.15-.7.296-1.052.442.25-.209.505-.414.757-.624 0 0 .003-.005.003-.008zm-.757.542c-.071.06-.144.123-.218.182-.032.012-.062.026-.09.039.103-.075.207-.15.308-.221zm2.98-2.01c.009.01.02.02.034.03-.313.185-.615.37-.925.557l.89-.587zm2.497-1.34c.004.005.01.01.02.016-.01-.006-.016-.011-.027-.014 0 0 .003-.002.007-.002zm1.353-.871c.008.003.01.007.017.012-.025.016-.056.031-.08.045.02-.02.041-.037.063-.057zm9.161-4.916c-2.202 1.29-4.388 2.765-6.56 4.337-.17.1-.973.593-1.203.731a34.94 34.94 0 0 1-.663-.465 98.04 98.04 0 0 1 4.245-2.259l-.03-.062c-1.443.72-2.864 1.488-4.278 2.277l-.16-.115c.148-.139.294-.275.445-.412.486-.304.973-.603 1.459-.903a118.29 118.29 0 0 1 6.745-3.129zm-8.7 4.492c.046.036.095.07.144.105-.172.1-.348.196-.52.294a.133.133 0 0 1-.034-.024c.134-.126.276-.25.41-.375zm-.11-.076c.016.012.033.022.05.037-.133.123-.273.25-.409.377-.047-.031-.095-.065-.14-.097.17-.105.333-.213.498-.317zm-.561.358c.051.034.101.067.15.103-.085.08-.177.16-.26.24-.247.143-.502.276-.75.42-.043-.042-.088-.088-.136-.13.333-.21.663-.421.996-.633zm-1.055.67c.05.041.09.086.138.133-.08.039-.15.086-.226.128-.05-.033-.104-.072-.152-.105.08-.052.162-.102.24-.155zm-.302.195c.048.036.096.069.15.105-.006.003-.012.003-.015.007l-.171-.087c.012-.008.022-.017.036-.025zm-.103.067c.056.031.114.058.168.086-.151.089-.297.179-.45.268l-.109-.102c.131-.082.262-.17.39-.252zm-.448.293c.032.031.07.064.105.095l-.073.042c-.03-.036-.051-.072-.079-.108a.295.295 0 0 1 .047-.03zm-.105.067l.083.104c-.011.006-.02.013-.036.017l-.106-.08a.649.649 0 0 1 .06-.041zm-.12.08c.038.026.072.052.106.08-.141.083-.284.17-.43.252-.032-.02-.06-.042-.093-.065l.418-.268zm-.477.307c.03.024.06.044.093.064a4.746 4.746 0 0 0-.176.103.629.629 0 0 1-.074-.06c.05-.037.105-.07.157-.107zm-.25.162c.027.022.049.038.079.058-.08.043-.16.09-.234.137-.022-.019-.042-.033-.062-.052.071-.045.143-.095.216-.143zm-.28.184a.84.84 0 0 1 .063.048c-.159.09-.313.184-.47.277l-.036-.036c.148-.095.3-.193.444-.29zm-.566.266c.003.005.01.01.014.014l-.458.3c.148-.104.296-.211.444-.314zm.478-.34c.014.01.022.02.037.029-.148.095-.296.193-.44.285-.007-.004-.014-.007-.02-.014l.423-.3zm.257-.18l.048.031c-.073.047-.142.095-.213.139a.26.26 0 0 0-.038-.03l.203-.14zm3.82-2.311l-.186.17c-.014-.008-.028-.02-.039-.027.073-.048.15-.096.224-.143zm.482-.445l-.2.185c-.193.12-.38.241-.57.36a7.586 7.586 0 0 0-.118-.086c.296-.156.59-.31.888-.46zm-.958.495c.042.03.088.06.128.092-.168.104-.333.21-.501.315l-.171-.116.544-.291zm-.61.331c.063.04.117.078.175.117-.33.209-.656.417-.983.627a1.258 1.258 0 0 0-.105-.1c.305-.217.61-.429.913-.644zm-.97.682c.035.031.068.065.105.098-.089.054-.168.109-.255.162-.033-.025-.072-.05-.112-.076l.261-.184zm-.317.224c.033.027.069.051.106.076a.227.227 0 0 0-.045.03c-.042-.022-.078-.042-.123-.062.02-.014.037-.028.062-.044zm-.126.087c.042.022.08.04.118.064l-.373.24a1.775 1.775 0 0 0-.076-.07c.113-.078.222-.154.331-.234zm-.39.274c.027.022.052.045.079.069l-.038.023c-.021-.025-.04-.051-.062-.076.011-.007.017-.01.022-.016zm-.075.053c.02.027.04.053.062.075a1.091 1.091 0 0 1-.076.051l-.08-.06a.773.773 0 0 0 .094-.066zm-.151.107c.028.02.051.04.074.058l-.418.272c-.02-.014-.04-.028-.063-.04l.407-.29zm-.464.33c.02.014.037.028.057.04-.05.035-.098.068-.154.1a.54.54 0 0 0-.051-.04c.051-.033.1-.065.148-.1zm2.033-1.517c-.169.117-.337.236-.502.355l-.056-.053c.184-.1.372-.2.558-.302zm-.625.336c.024.02.046.037.061.058-.085.063-.179.127-.266.191a2.664 2.664 0 0 0-.107-.076c.107-.058.213-.115.312-.173zm-.38.21l.116.08-.066.048a1.81 1.81 0 0 1-.144-.076l.095-.052zm-.166.094c.047.026.098.05.151.082-.107.07-.21.143-.316.216a10.805 10.805 0 0 0-.145-.129l.31-.17zm-.299.274a.39.39 0 0 1 .075.068c-.003.003-.003.005-.01.006-.021-.023-.041-.051-.065-.074zm-.118-.046c.042.053.087.106.128.16-.035.024-.074.05-.106.075a4.31 4.31 0 0 0-.189-.144c.055-.031.11-.063.167-.09zm-.229.126c.062.052.128.1.196.15-.141.098-.278.193-.412.29a4.424 4.424 0 0 1-.224-.156l.124-.105c.106-.06.207-.12.316-.179zm-.495.33c.075.05.143.102.217.153-.044.031-.09.065-.139.095-.06-.05-.123-.103-.188-.154.039-.03.073-.062.11-.094zm-.22.189l.2.135c-.065.047-.134.09-.2.137a7.395 7.395 0 0 1-.161-.132 3.48 3.48 0 0 1 .162-.14zm-.216.183c.055.044.106.088.162.128l-.417.296c-.04-.038-.08-.072-.112-.11.12-.105.243-.21.367-.314zm-.423.36l.11.104c-.487.349-.978.699-1.469 1.048.453-.383.91-.768 1.36-1.152zm.697-.595l.038.033c-.013-.01-.027-.017-.04-.026l.002-.007zm-.147-.01l.03.021c-.05.045-.107.09-.157.136-.023-.016-.042-.036-.065-.05.065-.036.126-.073.192-.108zm-.254.144c.025.019.047.038.071.058l-.362.311a2.573 2.573 0 0 1-.13-.13c.14-.08.28-.161.42-.239zm-.484.276l.138.137c-.46.39-.918.781-1.382 1.17-.123-.107-.257-.235-.384-.353.538-.32 1.081-.64 1.628-.954zm-1.69.99c.13.121.269.252.392.362l-.512.434c-.193-.127-.379-.253-.568-.38l.688-.416zm-.752.456l.571.383c-.01.006-.022.017-.033.023-.232.141-.47.283-.703.422-.436.266-.876.532-1.32.801-1.088.46-2.146.906-3.166 1.34a112.442 112.442 0 0 1 4.65-2.97zm3.256-1.913c.006.004.014.01.017.015l-.006.007c-.011-.005-.016-.01-.022-.016l.01-.006zm.1-.052c-.01.007-.02.016-.032.022l-.003-.003c.011-.006.02-.014.034-.019zm.78-.577c.012.01.023.026.033.039-.057.033-.12.068-.182.101 0-.001-.003-.005-.006-.006.05-.047.101-.089.154-.134zm2.667-1.396l.008.006c-.014.008-.031.016-.045.025.014-.01.028-.02.037-.031zm1.625-.757c-.168.105-.333.204-.497.31.04-.039.083-.078.126-.117l.37-.193zm21.874-8.147c-3.4.599-7.283 1.77-11.345 3.341.903-.515 1.779-1 2.618-1.452 2.884-1.163 5.793-1.855 8.727-1.89zm-9.457 2.205c-.755.414-1.535.853-2.338 1.312-.543.215-1.085.434-1.639.66a43.64 43.64 0 0 1 3.977-1.972zm13.511-4.605c.324.091.65.193.976.305a16.67 16.67 0 0 0-1.936-.206 23.1 23.1 0 0 1 .96-.1zm-7.956 1.947a27.566 27.566 0 0 1 6.633-1.79c.937.028 1.846.123 2.733.3 1.25.47 2.48 1.107 3.588 1.963.023.026.037.051.054.078a23.31 23.31 0 0 0-3.323-.5c-1.565-.115-3.361.01-5.33.33-2.937-.037-5.85.612-8.735 1.723 1.625-.865 3.105-1.586 4.38-2.104zm6.266-1.804c-2.056.317-4.16.87-6.29 1.74-1.391.563-3.027 1.371-4.83 2.344-1.758.708-3.507 1.584-5.244 2.585a115.204 115.204 0 0 0-6.548 2.998c6.668-4.08 13.569-7.697 20.062-9.484.97-.123 1.922-.194 2.85-.183zm-3.292.241c-6.591 1.888-13.567 5.612-20.29 9.756l-.841.428c.372-.346.745-.688 1.12-1.03 2.67-1.826 5.252-3.53 7.667-4.987 4.32-2.112 8.484-3.614 12.344-4.167zm-20.41 9.427c-.312.291-.631.58-.947.873-.381.195-.76.391-1.138.59l-.015-.01c.706-.49 1.407-.976 2.1-1.453zm7.41-4.937a166.888 166.888 0 0 0-6.656 4.335l2.01-1.832a93.799 93.799 0 0 1 4.645-2.503zm-4.922 2.666c-.705.635-1.415 1.285-2.13 1.943-.832.57-1.674 1.152-2.52 1.738l-.5-.356c.316-.265.629-.53.943-.79 1.407-.883 2.81-1.73 4.207-2.535zm-5.205 3.369c.164.118.33.235.498.354-.157.112-.319.225-.484.34-.155-.105-.306-.212-.464-.316.151-.125.302-.25.45-.378zm-.5.424c.147.102.298.204.449.306-.336.177-.674.357-1.007.54-.072-.066-.146-.126-.215-.19.257-.22.512-.438.772-.656zm-.832.7c.072.062.143.116.209.18l-.323.18a3.62 3.62 0 0 0-.165-.118c.097-.08.189-.162.279-.243zm-.333.29c.048.035.103.07.15.106-.033.019-.07.036-.107.058a4.4 4.4 0 0 0-.147-.076l.104-.088zm-.162.133c.045.023.09.05.134.07l-.287.158-.057-.05a3.86 3.86 0 0 0 .21-.178zm2.383-2.106c-.185.159-.374.317-.559.475l-.09-.064c.216-.137.434-.273.649-.411zm-.711.45l.098.07a29.73 29.73 0 0 0-.447.378c-.06-.037-.117-.076-.173-.114.173-.112.347-.224.522-.334zm-.584.373l.18.122c-.258.216-.515.43-.773.649a5.673 5.673 0 0 0-.248-.221c.282-.184.56-.37.84-.55zm-.9.587c.087.075.173.15.259.227l-.293.25a25.88 25.88 0 0 0-.336-.236l.37-.241zm-.432.279c.116.084.23.161.348.242-.039.03-.076.064-.112.095l-.42-.216c.06-.04.123-.078.184-.121zm-.25.163c.144.073.287.15.429.221-.066.054-.128.11-.196.166a.718.718 0 0 0-.09-.079c-.063-.089-.136-.177-.205-.264.017-.014.04-.028.061-.044zm-.169.109l.265.241.071.095c-.054.047-.112.097-.168.143-.137-.106-.27-.213-.41-.319.085-.051.164-.106.242-.16zm-.299.2c.139.107.276.217.413.324-.056.049-.217.187-.245.207-.054.032-.116.064-.171.1a25.843 25.843 0 0 1-.46-.322l.463-.308zm-.526.348c.153.104.302.211.458.319-.04.022-.083.048-.128.071-.134-.112-.27-.224-.41-.336.029-.017.057-.037.08-.054zm-.137.095c.137.112.268.22.406.331-.007.005-.01.008-.018.011l-.447-.305c.022-.014.037-.025.06-.037zm-.117.078l.436.3c-.06.037-.123.07-.182.104l-.395-.313c.043-.03.093-.06.141-.091zm-.199.132c.13.101.262.207.388.31-.137.079-.279.157-.417.238-.108-.106-.218-.21-.323-.315.119-.08.235-.155.352-.233zm-.41.272l.32.31c-.545.317-1.088.635-1.627.957-.079-.075-.158-.146-.238-.224.515-.349 1.028-.696 1.546-1.043zm-1.602 1.083l.235.22c-.235.138-.469.282-.702.422-.08-.055-.159-.11-.238-.162.233-.159.468-.32.705-.48zm-1.21.824l.444-.302c.08.051.156.106.233.159a115.708 115.708 0 0 0-4.912 3.148c-.34.147-.683.293-1.013.433a138.263 138.263 0 0 0 5.248-3.438zm38.128-15.574c.103.034.205.072.308.11l-.216-.015-.092-.095zm-.704-.58c.16.143.32.285.472.439-.428-.142-.86-.28-1.314-.397.284-.022.562-.028.842-.042zm-1.106.056c.577.14 1.133.302 1.68.484.04.045.082.087.127.134-.04-.003-.076-.002-.114-.007a28.368 28.368 0 0 0-3.332-.403c.55-.08 1.099-.163 1.639-.208zm-2.027.261c1.123.055 2.23.159 3.308.341-.817-.023-1.652.01-2.497.084-.464-.134-.927-.25-1.388-.345.196-.035.384-.049.577-.08zm-.739.117c.44.087.887.193 1.34.317-.373.035-.745.095-1.12.147a20.746 20.746 0 0 0-2.779.115 35.559 35.559 0 0 1 2.56-.579zm-.523-.163c.293 0 .578.021.87.032l-.347.06c-.176-.036-.347-.063-.523-.092zm-4.753.351a30.67 30.67 0 0 1 4.369-.348c.246.039.488.079.739.126-.935.18-1.879.409-2.837.669-3.796.475-7.896 1.891-12.15 3.92 3.926-2.33 7.359-3.975 9.879-4.367zm2.16-.59c.574.035 1.2.097 1.852.187-1.329.028-2.672.128-4.021.336-2.664.414-6.335 2.214-10.525 4.747a86.27 86.27 0 0 0-5.021 2.667 135.46 135.46 0 0 1 4.914-4.257c1.433-.878 2.87-1.658 4.32-2.304 2.951-1.013 5.806-1.545 8.481-1.376zm-13.236 3.946a158.227 158.227 0 0 0-4.765 4.154c-1.339.77-2.691 1.577-4.047 2.419 2.904-2.403 5.833-4.696 8.812-6.573zm3.949-2.272c-1.044.5-2.08 1.063-3.12 1.684.371-.3.742-.595 1.104-.875.676-.293 1.35-.562 2.016-.81zm-2.263.92c-.423.33-.856.675-1.289 1.031-3.262 2.005-6.478 4.528-9.65 7.172-.368.234-.736.464-1.112.7a2.55 2.55 0 0 0-.153-.111l-1.328-.933c4.513-3.086 9.1-5.914 13.532-7.858zm-13.592 7.9a3963.044 3963.044 0 0 0 1.483 1.043c-.174.109-.35.222-.526.334-.487-.336-.979-.677-1.466-1.025l.509-.352zm-.567.395c.487.346.976.69 1.463 1.021-.278.18-.552.363-.836.543a25.58 25.58 0 0 0-1.32-1.085c.23-.16.457-.322.693-.479zm-.753.522c.448.342.89.706 1.326 1.083-.126.08-.254.162-.377.244l-1.207-.828a6.918 6.918 0 0 1-.167-.207c.142-.098.282-.196.425-.292zm-.114.683c.335.227.668.454.998.683l-.193.126c-.086-.048-.177-.09-.265-.137-.182-.224-.36-.447-.54-.672zm.643.804c.034.016.062.03.097.049-.014.006-.025.015-.04.021-.018-.023-.037-.048-.057-.07zm-.25-.13c.034.018.068.037.104.054.043.056.089.11.13.164l-.234-.218zm-.832-.978c.083.06.164.114.248.175.2.24.387.485.584.725a4.29 4.29 0 0 1-.189-.097c-.264-.244-.518-.482-.766-.714.04-.031.083-.058.123-.089zm-.177.126c.191.184.39.37.596.565-.274-.14-.542-.275-.81-.415.07-.048.14-.1.214-.15zm-.279.196c.35.175.704.355 1.062.542l.425.39a3.795 3.795 0 0 0-.248.164c-.45-.355-.888-.702-1.312-1.044.025-.016.048-.034.073-.052zm-.13.094c.425.34.859.688 1.312 1.038l-.467.311c-.48-.339-.93-.672-1.347-.997l.502-.352zm-.556.395c.414.32.864.655 1.342.995l-.08.05c-.42-.344-.848-.688-1.278-1.037.005-.002.008-.006.016-.008zm-.073.048c.43.35.856.693 1.278 1.037a.62.62 0 0 0-.063.042c-.474-.324-.933-.64-1.385-.959.053-.039.115-.08.17-.12zm-.23.164c.452.316.91.633 1.383.957-.043.028-.089.06-.134.087-.422-.333-.851-.675-1.29-1.016.017-.01.026-.019.04-.028zm-.097.068c.437.341.864.679 1.289 1.017-.117.077-.235.154-.347.23-.39-.378-.763-.749-1.127-1.116.062-.045.124-.089.185-.13zm-.243.173c.367.363.738.735 1.125 1.111l-1.548 1.046a59.166 59.166 0 0 1-1.082-1.055l.353-.28c.385-.276.77-.548 1.152-.822zm-1.56 1.144c.374.377.735.727 1.082 1.052-.24.162-.474.325-.714.486-.417-.28-.831-.564-1.248-.852.294-.225.588-.454.88-.686zm-.938.732c.413.283.828.568 1.244.848-.137.096-.279.191-.42.286a129.057 129.057 0 0 1-5.625 3.673c-1.873.799-3.61 1.537-5.16 2.184a185.205 185.205 0 0 0 4.437-3.093c1.818-1.133 3.656-2.459 5.524-3.898zm-33.68 3.791c.088.117.152.233.247.346 4.133 4.941 16.03 5.761 24.482 1.682.889-.43 1.788-.935 2.687-1.475-1.386.983-2.727 1.919-4.02 2.784-2.967 1.234-5.196 2.1-6.217 2.3-3.72.74-11.354.128-15.434-2.909a7.74 7.74 0 0 1-1.382-1.346c-.149-.443-.272-.9-.362-1.382zm40.328-2.708c.003.006.009.01.015.012a2.617 2.617 0 0 1-.146.092c.045-.033.084-.068.13-.104zm.274-.212c.014.013.03.025.045.04-.083.047-.162.097-.245.147-.007-.005-.01-.013-.02-.017.076-.058.143-.112.22-.17zm.96-.457c.008.009.022.018.03.026-.012-.008-.022-.016-.032-.025l.002-.001zm3.488-2.214c-.245.145-.492.298-.732.442-.048-.032-.1-.063-.145-.098l.877-.344zm-.953.375c.053.035.105.07.153.108-.139.082-.279.17-.42.252l-.251-.159c.173-.068.347-.134.518-.2zm-.593.232l.259.168c-.396.243-.794.481-1.2.732-.08-.04-.16-.081-.24-.125l.968-.692.213-.083zm-1.243.822c.079.04.157.081.236.12l-.13.082c-.066-.045-.134-.09-.197-.136.033-.022.063-.046.09-.066zm-.16.115c.048.055.102.106.149.16-.227.14-.453.285-.685.427-.036-.034-.073-.07-.115-.103l.652-.484zm-.706.525c.036.034.077.065.112.1-.003.001-.003.004-.009.004-.037-.03-.078-.059-.121-.092.004-.004.014-.009.018-.012zm-.073.056c.039.028.08.057.117.087-.095.064-.193.121-.291.184-.028-.02-.058-.036-.083-.055l-.014-.014c.094-.067.176-.134.271-.202zm-.333.249a.1.1 0 0 1 .028.02c.014.017.031.034.044.053-.061.042-.123.078-.189.12-.025-.016-.046-.033-.071-.048.065-.049.126-.095.188-.145zm-.243.191l.066.04c-.035.023-.07.043-.103.066a7.375 7.375 0 0 0-.053-.043c.031-.022.06-.044.09-.063zm2.27-1.765c-.257.184-.511.37-.758.548-.09-.045-.176-.092-.265-.137.34-.135.68-.272 1.023-.41zm-1.106.447c.094.048.189.098.285.146l-.082.061c-.008-.005-.008-.006-.011-.01-.065-.065-.126-.132-.192-.197zm-.138.053c.093.064.188.13.279.196-.22.167-.44.327-.656.486-.092-.083-.185-.167-.278-.248.158-.121.322-.241.48-.366.058-.021.117-.045.175-.068zm-.711.476c.095.081.185.167.283.248a.238.238 0 0 0-.025.017c-.103-.078-.202-.154-.305-.229.014-.012.028-.022.047-.036zm-.102.08l.306.225-.254.195c-.073-.097-.15-.195-.224-.29.059-.042.118-.088.172-.13zm-.224.17c.052.07.108.14.162.208-.08-.052-.159-.1-.235-.151.025-.017.05-.04.073-.056zm-.13.102c.107.068.216.139.322.209l-.185.14-.32-.21.183-.139zm-.237.18c.106.07.21.144.316.214-.028.02-.054.045-.082.064a22.976 22.976 0 0 1-.285-.237c.014-.012.03-.026.051-.04zm-.109.085c.095.077.195.157.288.235-.076.057-.145.112-.22.17a20.882 20.882 0 0 0-.286-.236c.073-.057.145-.115.218-.17zm-.272.207c.095.082.193.161.285.24a84.16 84.16 0 0 1-.528.412c-.09-.086-.18-.17-.276-.256.175-.133.343-.26.519-.396zm-.57.438l.274.259a118.116 118.116 0 0 1-1.4.851c-.026-.014-.114-.076-.114-.076a.253.253 0 0 1-.05-.034c.428-.332.856-.665 1.29-1zm-1.67 1.29c.107-.079.213-.163.322-.245.022.014.05.036.069.05l.084.051c-.142.086-.29.168-.433.25a3.279 3.279 0 0 0-.098-.059c.019-.017.039-.03.056-.046zm-.114.093c.033.015.058.034.09.05-.21.125-.42.247-.63.367.18-.142.358-.279.54-.417zm3.722-2.954l-.29.222c-.03-.023-.054-.048-.087-.073.128-.048.255-.098.377-.15zm-.444.178c.034.03.066.055.1.086-.019.013-.034.027-.056.039-.044-.031-.08-.06-.12-.092l.076-.033zm-.148.061c.049.036.092.07.142.106-.058.039-.107.081-.159.12-.04-.056-.087-.11-.13-.165l.147-.06zm-.21.087c.049.058.094.119.137.18-.028.024-.057.046-.088.07-.086-.054-.169-.111-.256-.167l.207-.083zm-.281.116c.09.057.179.118.27.18-.057.045-.12.09-.177.135-.109-.074-.221-.147-.33-.219.08-.034.159-.064.237-.096zm-.316.126c.12.079.238.155.35.235l-.044.032-.32-.26.014-.007zm-.081.035c.109.094.222.184.331.276-.073.059-.146.112-.22.171l-.4-.328c.094-.04.19-.078.289-.119zm-.363.147c.139.116.283.228.42.342-.173.13-.34.262-.512.394-.148-.139-.299-.277-.443-.414l.532-.32c.003 0 .003 0 .003-.002zm-.598.36l.45.415c-.433.333-.864.67-1.298 1.007-.146-.1-.31-.218-.47-.34l.959-.866.36-.217zm-1.374 1.13c.165.12.32.234.472.332-.103.08-.354.276-.382.296-.155-.097-.31-.193-.46-.29l.37-.339zm-.425.384c.153.096.305.194.456.29l-.889.687c-.565.314-1.126.62-1.693.914.711-.623 1.423-1.255 2.126-1.891zm1.135-1.116c-.238.216-.472.428-.712.642-.056-.042-.107-.07-.165-.116.296-.176.584-.35.877-.526zm-.939.563c.062.048.117.083.175.128-.123.113-.251.227-.377.339l-.28-.18c.159-.097.322-.19.482-.287zm-.55.325l.295.19c-.769.693-1.54 1.38-2.314 2.058a73.867 73.867 0 0 1-5.857 2.717 88.722 88.722 0 0 0 2.423-1.788 328.138 328.138 0 0 0 5.454-3.177zm-5.887 3.421a73.753 73.753 0 0 1-2.263 1.65c-.487.2-.976.396-1.46.58.378-.264.763-.535 1.147-.8.851-.466 1.71-.942 2.576-1.43zm-3.108 1.719l-.869.602c-.275.104-.548.198-.818.297.56-.295 1.12-.593 1.687-.9zm11.086-6.483c.005.002.008.003.008.006l-.051.035.043-.04zm-.115.016c-.076.064-.15.134-.224.202l-1.196.716c-.082-.067-.177-.15-.264-.221.554-.233 1.113-.465 1.684-.697zm-1.756.725c.094.076.189.16.276.229-.167.098-.327.196-.495.292-.134-.085-.268-.175-.402-.261.206-.086.414-.176.621-.26zm-.7.291c.14.09.282.18.417.27-1.668.99-3.345 1.97-5.01 2.92 1.103-.855 2.2-1.74 3.29-2.644.433-.182.862-.36 1.303-.546zm-1.52.637a126.417 126.417 0 0 1-3.492 2.793c-.825.469-1.648.931-2.47 1.381a874.472 874.472 0 0 0 5.803-4.106c.05-.023.105-.045.16-.068zm-1.629.976c.366-.24.736-.49 1.104-.734a678.836 678.836 0 0 1-5.972 4.221c-.76.416-1.515.822-2.268 1.213 2.257-1.444 4.648-3.037 7.136-4.7zm.86-.651c-.298.195-.598.397-.892.595-2.676 1.785-5.227 3.483-7.628 5.013-.595.204-1.182.4-1.765.583.754-.442 1.49-.905 2.166-1.427.137-.109.285-.216.427-.322 2.579-1.4 5.072-2.887 7.533-4.375.05-.022.105-.047.16-.067zm-8.082 4.647c-.024.02-.046.04-.074.058-.766.591-1.6 1.11-2.467 1.592-.559.175-1.113.335-1.662.483a87.095 87.095 0 0 0 4.203-2.133zm7.48-4.395c-2.194 1.326-4.418 2.644-6.71 3.9a96.16 96.16 0 0 1 3.658-2.605c.986-.42 1.999-.85 3.051-1.295zm-4.454 1.893l1.08-.461a96.472 96.472 0 0 0-3.752 2.699 89.927 89.927 0 0 1-4.97 2.513c-1.005.268-1.989.495-2.954.692.045-.025.086-.049.13-.07 3.514-1.37 7.067-3.292 10.44-5.36.009-.009.02-.012.026-.013zm-.442.188c-3.08 1.87-6.303 3.602-9.502 4.897a69.798 69.798 0 0 0 4.434-2.754c1.516-.633 3.222-1.359 5.068-2.143zm-28.037.38c.36.404.769.79 1.251 1.147 4.092 3.049 11.751 3.662 15.48 2.923.99-.196 3.1-1.006 5.916-2.174-1.642 1.089-3.198 2.048-4.653 2.845-.237.088-.467.17-.7.258-6.062 1.15-11.216.828-14.342-1.2-.134-.093-.264-.179-.398-.275-1.158-.864-2.014-2.074-2.554-3.524zm13.597 6.66c-.835.244-1.62.403-2.343.425-.573.018-1.21-.061-1.875-.207a27.167 27.167 0 0 0 4.218-.218zm9.046-2.922a25.331 25.331 0 0 1-5.842 2.25 72.25 72.25 0 0 0 4.067-1.742 61.756 61.756 0 0 0 1.775-.508zm-2.139.596a65.562 65.562 0 0 1-4.302 1.807c-.616.145-1.242.256-1.868.354 1.045-.366 2.162-.878 3.347-1.507a51.755 51.755 0 0 0 2.823-.654zm-3.057.7c-1.245.651-2.404 1.163-3.486 1.517a27.06 27.06 0 0 1-4.25.27c2.44-.157 5.008-.801 7.612-1.761.042-.011.087-.017.124-.025zm-13.802-.75c3.113 1.615 7.832 1.83 13.31.836-2.744.987-5.436 1.602-7.978 1.661-1.665-.433-3.531-1.312-5.332-2.498zm.345-18.918c-2.33 1.974-3.75 4.948-4.339 7.543a14.862 14.862 0 0 0-.375 3.262c0 .67.062 1.309.162 1.927a6.376 6.376 0 0 1-.886-1.91c-.042-.49-.073-.988-.073-1.505 0-.803.06-1.639.162-2.486.32-1.201.862-2.468 1.69-3.794a12.465 12.465 0 0 1 1.92-2.395c.574-.242 1.151-.46 1.74-.642zm-5.366 11.552c-.014-.101-.02-.208-.031-.311.199.577.498 1.117.87 1.639.078.456.177.904.308 1.329-.615-.808-1.016-1.69-1.147-2.657zm-.325-2.49c0-.584.095-1.194.232-1.818a20.692 20.692 0 0 0-.116 2.075c0 .38.014.751.033 1.114a6.753 6.753 0 0 1-.15-1.371zm3.765-8.336a12.675 12.675 0 0 0-1.789 2.274c-.7 1.123-1.218 2.211-1.56 3.246.201-1.391.535-2.81.998-4.205.206-.16.425-.304.639-.448a17.494 17.494 0 0 1 1.712-.867zm-2.452 1.4a24.272 24.272 0 0 0-1.025 4.556c-.234.827-.358 1.623-.358 2.381 0 .62.102 1.205.258 1.775.019.244.037.488.073.722.143 1.072.588 2.053 1.317 2.926.403 1.156 1.007 2.163 1.796 2.979-1.692-1.371-3.2-2.979-4.276-4.67a18.756 18.756 0 0 1-.487-1.839 27.425 27.425 0 0 1-.504-3.64c.305-.79.693-1.62 1.186-2.5.442-.778.918-1.493 1.418-2.178.194-.175.394-.35.602-.512zm-2.121 10.936c1.239 1.864 2.985 3.615 4.91 5.055.094.073.18.159.279.227.09.063.19.115.282.176 1.931 1.36 3.973 2.392 5.797 2.903a22.858 22.858 0 0 1-3.88-.52c-.417-.15-.82-.316-1.212-.503l-.265-.132c-2.825-1.437-4.798-3.861-5.911-7.206zm7.827 7.998c.674.139 1.368.242 2.072.316a13.35 13.35 0 0 1-1.838-.247c-.075-.024-.158-.042-.234-.069zm55.645-19.267c-4.187 1.946-9.625 4.632-15.133 7.435-.654-.454-1.292-.9-1.911-1.333.362-.218.725-.44 1.08-.65 5.485-2.13 11.049-4.11 15.964-5.452zm-17.108 6.137c.618.438 1.256.881 1.902 1.333-.103.054-.205.104-.308.158-.666-.401-1.337-.812-2.011-1.235.135-.088.278-.17.417-.256zm-.482.293c.673.423 1.34.834 2.007 1.234-.376.19-.75.38-1.123.571-.684-.353-1.36-.703-2.024-1.049-.017-.01-.037-.018-.054-.028.398-.249.797-.488 1.194-.728zm-1.263.77a.77.77 0 0 0 .095.047l1.978 1.03c-.157.077-.31.158-.467.235-.58-.404-1.16-.815-1.747-1.226.045-.027.093-.058.141-.086zm-.204.128c.584.408 1.165.817 1.737 1.22-.163.086-.334.17-.496.259l-.498-.607a31.584 31.584 0 0 0-.754-.866c.004 0 .008-.003.011-.006zm-.068.04c.257.287.512.576.756.877l.49.591-.35.18a95.452 95.452 0 0 1-.926-.664c-.218-.188-.43-.375-.642-.56.225-.14.45-.285.672-.424zm.591 1.513c.083.056.158.112.235.171-.007.005-.015.007-.018.013-.077-.062-.145-.126-.217-.184zm-1.388-1.013l.72.532c.268.23.54.463.816.696l-.073.039c-.6-.364-1.184-.725-1.75-1.086.092-.061.19-.12.287-.18zm-.313.248c.554.35 1.12.7 1.704 1.053l-.281.148c-.336-.218-.67-.434-1-.652a36.738 36.738 0 0 0-.423-.55zm.546.71c.27.177.537.353.807.525-.098.052-.198.101-.291.151l-.516-.675zm-.628-.707c.113.143.227.29.336.432a46.465 46.465 0 0 1-.504-.33l.168-.102zm-.23.143c.23.152.46.305.689.453l.562.739c-.084-.068-.984-.812-1.36-1.122l.108-.07zm-.172.107h.005c.38.318 1.334 1.107 1.438 1.186a5.33 5.33 0 0 0-.268.14c-.453-.38-.927-.775-1.418-1.176l.243-.15zm-.306.185c.491.405.966.797 1.416 1.176-.235.118-.467.24-.699.354-.445-.384-.88-.773-1.303-1.162.195-.122.391-.24.586-.368zm-.651.405c.425.386.86.774 1.304 1.163-.412.213-.822.425-1.23.638-.161-.11-.326-.213-.48-.316 0 0-.447-.293-.791-.515.358-.3.752-.618 1.169-.951a.172.172 0 0 0 .028-.019zm-1.255 1.016a947.992 947.992 0 0 1 1.261.82c-.134.068-.264.138-.395.206a83.62 83.62 0 0 1-1.21-.735c.113-.098.225-.19.344-.29zm-1.548 1.356c.33-.303.717-.647 1.15-1.018.398.248.794.489 1.195.722-1.004.522-1.989 1.04-2.954 1.541-.615.324-1.425.74-2.366 1.192 1.222-.92 2.246-1.765 2.975-2.437zm2.303-2.062c-.264.213-.518.423-.755.622a3.584 3.584 0 0 1-.137-.09c.298-.173.595-.352.892-.532zm-.958.57a2 2 0 0 0 .149.096c-.12.101-.235.2-.352.294-.076-.047-.15-.092-.225-.14.141-.084.284-.163.428-.25zm-.497.29c.076.05.16.099.24.15-.425.364-.808.7-1.13 1-.785.724-1.888 1.635-3.236 2.637a81.61 81.61 0 0 1-2.965 1.35c1.986-1.418 3.99-2.954 6.019-4.523.358-.2.714-.41 1.072-.613zm-1.44.81a206.784 206.784 0 0 1-5.242 3.953 151.649 151.649 0 0 0 3.672-3.11 77.262 77.262 0 0 0 1.57-.843zm-1.82.968a134.814 134.814 0 0 1-4.184 3.51c-2.257.966-4.864 1.967-7.628 2.797 1.998-.997 3.973-2.23 5.931-3.607a72.361 72.361 0 0 0 5.88-2.7zm-6.156 2.808c-1.879 1.312-3.775 2.482-5.698 3.438a217.77 217.77 0 0 0 4.252-2.872c.482-.18.962-.372 1.446-.566zm-1.7.658a229.296 229.296 0 0 1-4.414 2.974c-.587.172-1.186.335-1.782.488a114.665 114.665 0 0 0 4.85-2.93l.302-.157c.347-.121.697-.247 1.044-.375zm-2.06.903a100.627 100.627 0 0 1-4.388 2.62c-.823.206-1.652.39-2.483.547 2.18-.88 4.488-1.952 6.87-3.167zm.54-.358c-2.712 1.4-5.328 2.626-7.784 3.601a37.29 37.29 0 0 1-3.318.453c.896-.292 1.779-.6 2.647-.927a25.293 25.293 0 0 0 6.704-2.559 55.794 55.794 0 0 0 1.75-.568zm-8.888 3.21c-.83.309-1.673.6-2.527.875-2.523.197-4.972.081-7.196-.51.897.15 1.815.22 2.761.205.058.002.113.002.172.005.804.207 1.562.313 2.236.294.834-.028 1.748-.22 2.732-.54.61-.089 1.218-.202 1.822-.328zm1.753.942c-1.86.933-3.557 1.624-5.06 1.99-.503.124-.99.22-1.47.303-.756-.13-1.508-.31-2.25-.584a15.653 15.653 0 0 0 1.907-.24 30.213 30.213 0 0 0 2.801-.734 20.112 20.112 0 0 0 4.072-.735zm3.892-1.554a28.29 28.29 0 0 1-3.13 1.24c.48-.25.969-.518 1.47-.797.559-.14 1.11-.29 1.66-.443zm-1.908.502c-.546.3-1.077.59-1.6.858-1.377.419-2.77.717-4.174.843a46.649 46.649 0 0 0 3.164-1.136c.876-.162 1.745-.35 2.61-.565zm-2.974.637c-1.065.41-2.095.775-3.09 1.08-.798.056-1.609.051-2.418 0 .755-.209 1.5-.431 2.238-.67 1.079-.082 2.174-.22 3.27-.41zm-7.25 1.527a56.55 56.55 0 0 0 1.513-.391c.794.064 1.584.072 2.372.026-.875.26-1.726.492-2.53.653-.696.141-1.374.208-2.04.246-.222-.081-.439-.192-.663-.292.447-.073.89-.133 1.348-.242zm-1.47.266c.213.093.421.193.633.275a13.57 13.57 0 0 1-2.399-.092c.58-.03 1.17-.09 1.767-.183zm-3.59.193c.483.03.976.028 1.473.012.929.145 1.897.187 2.888.133.729.277 1.46.47 2.196.611-1.975.315-3.796.291-5.449-.07a24.226 24.226 0 0 1-1.108-.686zm25.424-6.066a.413.413 0 0 1-.065.052c-4.967 3.511-9.788 6.225-14.458 6.817 2.024-1.088 4.257-2.46 6.637-4.014.02-.011.042-.017.058-.03 2.83-.825 5.51-1.84 7.828-2.825zm-8.326 3.06c-2.3 1.493-4.447 2.8-6.394 3.839a13.894 13.894 0 0 1-3.728-.074 20.2 20.2 0 0 0 1.278-.272c1.61-.394 3.437-1.155 5.447-2.185 1.141-.349 2.27-.788 3.397-1.308zm11.531-4.491a70.158 70.158 0 0 1-7.852 4.98 77.664 77.664 0 0 0 4.616-3.435c.114-.08.224-.162.333-.241a91.561 91.561 0 0 0 2.903-1.304zm-4.106 2.147a73.487 73.487 0 0 1-4.247 3.1c-3.968 2.11-8.368 3.901-12.542 4.586a36.074 36.074 0 0 0 2.982-1.435c4.466-.512 9.071-2.985 13.807-6.25zm-17.757 6.142c1.24.215 2.487.266 3.75.139a34.94 34.94 0 0 1-3.059 1.447c-.6.092-1.192.16-1.776.202a9.657 9.657 0 0 1-2.67-.853 29.449 29.449 0 0 1-1.716-.93c1.666.334 3.49.334 5.471-.005zm-5.653-3.055c.06.014.12.017.178.03 2.281.695 4.814.87 7.436.692-.711.22-1.429.426-2.157.623-1.793-.14-3.61-.576-5.457-1.345zm-3.387-1.574c.442.245.91.49 1.382.732.04.018.067.039.102.056.054.026.113.051.168.076.162.083.319.162.485.241-.124-.032-.255-.065-.378-.098-.33-.126-.657-.27-.976-.425-.27-.193-.529-.387-.783-.582zm5.289 3.312a37.402 37.402 0 0 1-4.019-2.381c.148.047.296.089.442.134.36.132.726.241 1.091.34 1.97.894 3.904 1.397 5.818 1.571-.434.114-.865.229-1.3.333-.496.117-.966.187-1.448.263-.196-.088-.393-.16-.584-.26zm-4.255-2.546l.082.037a3.134 3.134 0 0 0-.067-.025c-.004-.004-.007-.01-.015-.012zm-6.671-12.909c.082 1.114.244 2.283.498 3.518.114.554.25 1.084.403 1.598-.471-.769-.856-1.552-1.117-2.34-.131-.388-.226-.77-.29-1.148.125-.52.29-1.063.506-1.628zm-.539 1.76c.066.343.145.687.257 1.038.288.869.729 1.73 1.263 2.57.943 2.978 2.543 5.247 4.793 6.769-.202-.11-.401-.221-.594-.333-1.649-1.306-2.975-2.638-4.03-3.955a22.288 22.288 0 0 1-1.58-2.948 13.387 13.387 0 0 1-.284-2.249c.042-.286.102-.585.175-.892zm2.075 6.638a24.929 24.929 0 0 0 3.267 3.183 25.08 25.08 0 0 1-1.044-.642 14.185 14.185 0 0 1-2.223-2.54zm2.685 2.917c.296.184.609.364.92.545.314.247.66.493.997.74-.67-.35-1.302-.79-1.917-1.285zm-4.574-6.08c.314.683.677 1.364 1.084 2.044-.319-.423-.611-.846-.879-1.265a14.272 14.272 0 0 1-.205-.778zm.288 1.039c.35.534.726 1.07 1.165 1.617l.088.143a14.548 14.548 0 0 0 2.199 2.67 23.604 23.604 0 0 1-2.273-1.706 14.937 14.937 0 0 1-1.18-2.724zm1.288 2.909a24.887 24.887 0 0 0 2.489 1.808c.842.744 1.74 1.34 2.68 1.798.025.017.044.036.069.052-1.78-.632-3.36-1.507-4.595-2.662-.025-.022-.045-.048-.07-.072-.205-.303-.39-.614-.573-.924zm.738 1.161c1.272 1.147 2.875 2.02 4.69 2.637a36.65 36.65 0 0 0 4.245 2.538c.164.081.329.142.494.218-.679.101-1.346.165-2.002.185-.853-.132-1.68-.34-2.467-.618-2.046-1.477-3.71-3.15-4.96-4.96zm5.128 5.086a14.04 14.04 0 0 0 1.948.516c-.42.004-.832-.013-1.238-.04-.24-.157-.482-.314-.71-.476zm-7.849-12.382c.04.52.094 1.031.187 1.543a59.995 59.995 0 0 0-.249-.635c.005-.294.03-.597.062-.908zm-.065 1.089c.104.263.213.525.333.788.06.29.125.577.204.863-.171-.281-.34-.561-.49-.835a8.522 8.522 0 0 1-.047-.816zm.055.979c.172.305.365.615.561.93a14.84 14.84 0 0 0 1.175 2.823c-.231-.201-.446-.4-.653-.6a7.745 7.745 0 0 1-.564-1.131 22.546 22.546 0 0 1-.456-1.652c-.017-.126-.05-.24-.063-.37zm1.224 3.39c.192.18.396.358.607.535.155.279.32.55.495.824a8.756 8.756 0 0 1-1.102-1.36zm-.351-.347l.182.179a8.81 8.81 0 0 0 1.457 1.813c1.24 1.855 2.913 3.569 4.97 5.082a15.56 15.56 0 0 1-3.41-1.789c-1.416-1.483-2.457-3.31-3.2-5.285zm3.964 6.026c-.162-.146-.313-.3-.47-.451a15.145 15.145 0 0 0 3.293 1.633c.25.182.51.36.775.53-.439-.03-.867-.088-1.295-.158a11.192 11.192 0 0 1-2.303-1.554zm2.489 1.65c.403.062.809.112 1.221.139.335.224.679.44 1.034.649a11.053 11.053 0 0 1-2.255-.788zm-6.621-8.154c.07.145.137.29.216.43-.031-.028-.065-.066-.095-.094a6.272 6.272 0 0 1-.121-.336zm-.68-2.08c.017.06.03.114.041.17.075.382.183.754.31 1.115.106.344.218.686.338 1.025-.106-.109-.2-.22-.3-.331a21.497 21.497 0 0 1-.39-1.978zm1.192 4.656a24.991 24.991 0 0 1-.77-2.539c.104.116.21.226.32.338.714 1.94 1.713 3.739 3.063 5.222a18.783 18.783 0 0 1-2.06-1.701 17.21 17.21 0 0 1-.553-1.32zm.614 1.468c.68.64 1.412 1.23 2.193 1.772.246.256.505.505.772.744a11.286 11.286 0 0 0 2.14 1.468 13.154 13.154 0 0 1-3.226-1.044 13.336 13.336 0 0 1-1.879-2.94zm7.526 6.477c-2.212-.563-4.045-1.71-5.516-3.391 1.03.473 2.132.797 3.284.994.828.416 1.71.727 2.641.931.609.358 1.237.705 1.9 1.035.766.378 1.56.642 2.37.806-1.633.09-3.208 0-4.68-.375zm18.986-4.08c-4.546 2.955-8.929 4.813-12.848 4.57.209-.077.436-.178.656-.269 4.043-.62 8.301-2.288 12.192-4.302zm-12.466 4.342c-.197.075-.388.152-.575.22a11.77 11.77 0 0 1-.624-.072c.394-.035.797-.09 1.199-.148zm-16-14.51c.014.032.02.063.034.096v.056c0 .258.014.512.034.761-.01-.014-.012-.03-.02-.045-.028-.294-.038-.582-.048-.869zm1.612-6.536a10.91 10.91 0 0 1 1.701-2.03 24.346 24.346 0 0 0-1.236 1.937 18.648 18.648 0 0 0-1.139 2.406 16.176 16.176 0 0 1-.039-.98c.207-.461.445-.905.713-1.333zm-.775 1.502c.008.311.022.626.045.95-.208.553-.38 1.101-.51 1.635a6.41 6.41 0 0 1-.08-.867c.142-.593.313-1.17.545-1.718zm-.588 1.953c.015.262.03.522.08.794-.068.272-.12.54-.16.808-.004-.078-.014-.156-.014-.235v-.189c0-.288.01-.574.03-.86.017-.11.042-.212.064-.318zm-.279 2.525c0-.623.05-1.22.134-1.801-.003.15-.014.305-.014.454v.189c.003.202.02.401.033.599-.047.352-.07.697-.078 1.035-.02-.051-.042-.1-.058-.15 0-.105-.017-.219-.017-.326zm4.145-8.783c-.128.103-.248.212-.37.316.034-.042.065-.087.099-.13.089-.06.182-.127.27-.186zm-1.076.74c.207-.157.42-.289.626-.432-.051.073-.109.14-.162.213a11.12 11.12 0 0 0-1.944 2.246c-.254.397-.465.81-.666 1.233l-.003-.226c0-.194.01-.378.02-.571.46-.904 1.167-1.734 2.13-2.464zm-2.202 2.62c-.003.14-.016.274-.016.414 0 .114.011.234.011.347a10.323 10.323 0 0 0-.546 1.616c0-.103.01-.206.017-.307.081-.562.202-1.119.353-1.664.05-.138.114-.27.18-.406zm.008-.215v.04c-.017.027-.027.058-.04.085.013-.044.027-.084.04-.125zm16.026-7.274c2.11.25 4.2.926 6.29 1.89-4.679-.947-9.675-1.367-14.3-.013.186-.148.382-.287.581-.42 2.656-.888 5.373-1.288 7.43-1.457zm-7.662 1.534a9.152 9.152 0 0 0-.526.4c-.587.178-1.164.39-1.739.63.07-.066.139-.133.207-.195.674-.315 1.36-.593 2.058-.835zm-2.262.933c-.06.06-.129.118-.188.179-.283.118-.559.227-.834.362.333-.191.677-.373 1.022-.541zm6.232-2.455c1.13-.154 2.252-.16 3.37-.05-1.963.176-4.444.56-6.903 1.354a8.758 8.758 0 0 1 3.533-1.304zm13.826.802c-3.099-.673-5.517-.884-6.518-.945-.715-.045-1.365-.06-1.843-.045-.501.018-1.102.051-1.77.106a14.576 14.576 0 0 0-3.709.014 8.865 8.865 0 0 0-3.754 1.45c-.708.238-1.408.508-2.092.82 5.446-4.697 13.943-3.402 19.686-1.4zm-15.536-1.87c3.665-1.069 8.51-.812 13.16.144 1.858.669 3.657 1.469 5.336 2.325.117.08.235.16.35.243a45.493 45.493 0 0 0-2.773-.722c-5.813-2.127-14.806-3.653-20.428 1.378a16.86 16.86 0 0 0-2.25 1.278c-.18.106-.365.203-.54.315.041-.126.085-.254.132-.378a17.462 17.462 0 0 1 3.856-3.397 24.26 24.26 0 0 1 3.157-1.186zm-7.133 4.72c-.031.1-.069.2-.105.301-.087.056-.168.123-.258.181.125-.159.235-.332.363-.483zm3.592-3.348a17.523 17.523 0 0 0-3.415 3.05c.19-.517.396-1.027.621-1.527a27.636 27.636 0 0 1 2.794-1.523zm-2.886 1.578a23.427 23.427 0 0 0-.64 1.592c-.208.248-.404.518-.606.778-.265.18-.537.35-.794.55-.925.7-1.622 1.488-2.086 2.345 0-.036 0-.076.005-.112a14.168 14.168 0 0 1 1.724-3.415 23.586 23.586 0 0 1 2.397-1.738zm-2.585 1.896a14.443 14.443 0 0 0-1.527 3.014c.035-.625.105-1.223.21-1.802.411-.422.856-.822 1.317-1.212zm-1.402 1.305a16.143 16.143 0 0 0-.201 1.94c-.092.269-.18.543-.257.821a5.663 5.663 0 0 0-.36 1.703c-.058.374-.096.753-.12 1.136a12.46 12.46 0 0 0-.214 2.217c0 .037.005.076.005.115-.063-.182-.128-.363-.182-.546a28.519 28.519 0 0 1-.21-5.471c.435-.666.954-1.303 1.539-1.915zm-1.278 7.762c.044.131.095.263.145.396.003.219.018.443.037.667-.07-.353-.13-.71-.182-1.063zm-.33-5.732a27.46 27.46 0 0 0-.048 1.538c0 1.103.07 2.249.204 3.404-.403-1.404-.62-2.799-.62-4.151 0-.005.003-.013.003-.014a9.25 9.25 0 0 1 .461-.777zm-.526.91c.014 1.457.261 2.951.74 4.461.07.539.16 1.076.27 1.616a17.323 17.323 0 0 1-1.62-4.495 8.609 8.609 0 0 1 .61-1.582zm-.875 3.426a7.147 7.147 0 0 1 .226-1.714c.29 1.37.814 2.937 1.707 4.604 0 .007 0 .011.005.018.075.838.243 1.718.46 2.62-1.588-1.782-2.398-3.626-2.398-5.528zm15.625-13.62a18.752 18.752 0 0 1 1.73-.327c2.804.282 5.808.752 8.826 1.424.006 0 .01.003.014.005-4.536-.892-9.22-1.104-12.79-.066-.891.26-1.851.617-2.832 1.048a17.335 17.335 0 0 1 5.052-2.084zm3.163-.56c-.484.038-.965.093-1.438.165a60.537 60.537 0 0 0-1.887-.16 19.59 19.59 0 0 1 3.325-.005zm-8.78 1.542c1.57-.836 3.278-1.307 5.054-1.505.658.044 1.332.098 2.018.166a17.372 17.372 0 0 0-6.848 2.585 27.348 27.348 0 0 0-3.097 1.665c.25-.547.528-1.08.82-1.597a15.518 15.518 0 0 1 2.053-1.314zm-2.195 1.424c-.281.5-.532 1.018-.771 1.543a24.09 24.09 0 0 0-2.309 1.64 14.907 14.907 0 0 1 3.08-3.183zm6.922-2.945c-1.669.218-3.276.673-4.757 1.459-.681.362-1.322.772-1.928 1.217.58-1 1.24-1.929 1.983-2.766a51.614 51.614 0 0 1 4.702.09zm-4.792-.088a17.31 17.31 0 0 0-2.031 2.873c-1.328.999-2.461 2.182-3.37 3.502-.5.415-.98.848-1.426 1.3.436-2.323 1.39-4.259 2.881-5.783a11.002 11.002 0 0 1 2.36-1.805c.5-.04 1.035-.069 1.586-.087zm-1.731.1a11.048 11.048 0 0 0-2.26 1.742c-1.525 1.555-2.493 3.537-2.92 5.916a13.961 13.961 0 0 0-1.548 1.891c.105-1.637.364-3.154.756-4.563.923-1.874 2.299-3.485 3.994-4.738a21.86 21.86 0 0 1 1.978-.249zm-6.128 5.311a23.215 23.215 0 0 0-.68 4.349v.017c-.166.248-.319.501-.456.758.02-1.788.399-3.51 1.136-5.124zm2.783-4.75c.364-.107.77-.204 1.216-.288a13.203 13.203 0 0 0-3.764 4.416 16.68 16.68 0 0 1 1.57-3.698c.315-.18.642-.326.978-.43zm-1.116.523a17.195 17.195 0 0 0-1.573 3.879c-.038.064-.069.127-.101.193a12.71 12.71 0 0 0-1.205 5.416 8.807 8.807 0 0 0-.632 1.592 14.456 14.456 0 0 1-.227-1.545 28.048 28.048 0 0 1 1.225-4.861 47.467 47.467 0 0 1 1.592-3.975c.29-.266.6-.504.921-.699zm-4.065 13.323c0-1.138.112-2.311.286-3.496.048.431.126.898.226 1.389a6.914 6.914 0 0 0-.263 1.847c0 1.95.842 3.843 2.493 5.666.217.866.467 1.749.808 2.669.146.408.316.79.487 1.17a20.62 20.62 0 0 1-3.486-4.526 20.402 20.402 0 0 1-.551-4.719zm2.814 10.16a17.832 17.832 0 0 1-2.209-5.207 20.559 20.559 0 0 0 3.5 4.459 13.861 13.861 0 0 0 1.828 2.963 13.058 13.058 0 0 1-2.988-2.03c-.04-.062-.09-.116-.131-.185zm11.374 6.996c-4.439-.269-8.443-2.673-11.088-6.591a12.848 12.848 0 0 0 2.964 1.952c1.494 1.765 3.383 2.965 5.665 3.544 1.57.401 3.265.488 5.016.362.254.044.51.088.766.11-1.284.448-2.408.681-3.323.623zm-13.93-22.28c0-.401.017-.745.042-1.02.223-2.647 1.244-4.922 2.707-6.345a48.086 48.086 0 0 0-1.516 3.818 28.985 28.985 0 0 0-1.19 4.573c-.029-.369-.043-.72-.043-1.026zm22.931-9.548c.498.113 1.007.249 1.517.403-1.763-.23-3.53-.313-5.25-.201-1.385-.134-2.759-.15-4.088 0a51.693 51.693 0 0 0-4.962-.109c.328-.369.676-.719 1.034-1.044.185-.058.37-.112.555-.164 3.97-.15 8.076.399 11.194 1.115zm-11.902-.898c-.338.314-.661.642-.971.994a32.36 32.36 0 0 0-1.525.076 13.82 13.82 0 0 1 2.496-1.07zm.358-.196c-.031.009-.058.018-.086.03.011-.012.018-.021.028-.029l.058-.001zm-.162.006c-.023.025-.047.051-.08.076-.95.3-1.878.691-2.757 1.195-.715.06-1.375.14-1.972.24.643-.464 1.33-.878 2.051-1.234.9-.139 1.826-.226 2.758-.277zm-2.977.314c-.698.357-1.364.763-1.986 1.222-.5.089-.957.194-1.356.313a4.805 4.805 0 0 0-.895.381c.195-.331.392-.657.609-.968a18.56 18.56 0 0 1 3.628-.948zm-3.748.99c-.216.32-.416.654-.609.993a5.56 5.56 0 0 0-.923.665c.193-.42.39-.82.589-1.21.054-.037.105-.074.157-.113.257-.116.518-.228.786-.335zm-4.352 3.567c1.088-1.221 2.182-2.218 3.29-3.033-.205.408-.407.823-.607 1.259-1.545 1.424-2.624 3.773-2.854 6.514a10.48 10.48 0 0 0-.042 1.024c0 .387.022.843.065 1.335a24.122 24.122 0 0 0-.324 3.79c0 1.558.173 3.068.5 4.512-.05-.084-.1-.17-.145-.254-1.505-2.81-2.255-5.685-2.255-8.29 0-.276.016-.547.03-.815.144-1.081.369-2.165.68-3.248.392-1.04.94-1.984 1.662-2.794zm1.4 20.086c-2.581-2.963-3.935-6.988-3.935-11.295 0-.638.039-1.286.096-1.933 0 2.62.757 5.5 2.265 8.325.08.15.171.3.257.453a17.884 17.884 0 0 0 2.235 5.392 14.212 14.212 0 0 1-.917-.942zm-2.874-17.964c.781-2.431 2.484-4.095 4.699-5.196a21.72 21.72 0 0 0-3.273 3.028 8.941 8.941 0 0 0-1.446 2.238c.006-.022.01-.047.02-.07zm18.847-7.714c2.398.517 4.755 1.323 7.018 2.1 0 0 .344.118.613.207-.107-.014-.213-.027-.318-.042a24.53 24.53 0 0 0-1.887-.526c-3.043-.696-7.018-1.235-10.894-1.123 1.873-.476 3.78-.638 5.468-.616zm-3.764-.51c1.148.057 2.287.208 3.42.439-1.698 0-3.602.191-5.45.698-.11.007-.215.014-.326.017.44-.38.907-.715 1.387-1.027.32-.053.643-.096.97-.127zm-1.15.158c-.454.304-.89.637-1.306 1.001-.9.047-1.79.13-2.658.255a15.411 15.411 0 0 1 3.964-1.256zm.445-.19c.074.002.142.01.215.011-.109.013-.212.035-.316.05.033-.02.069-.039.101-.06zm-.123-.003c-.054.033-.105.061-.163.097-1.533.252-2.99.724-4.322 1.384-1.323.2-2.584.515-3.751.947.08-.107.159-.211.23-.316 2.665-1.567 5.348-2.13 8.006-2.112zm-8.157 2.204c-.065.09-.134.178-.199.27-.185.071-.378.143-.563.22.253-.17.507-.336.762-.49zm11.558-3.528c2.982-.629 6.034-.042 8.887 1.122 1.31 1.15 2.663 2.458 4.022 3.838-3.892-2.254-8.825-4.154-14.974-3.724-.168.012-.332.035-.497.05-.2-.008-.403-.02-.602-.022.971-.578 2.02-1.024 3.164-1.264zm2.276-3.083c.127-.01.256-.01.383-.011.617.27 1.24.585 1.88.957 1.302.76 2.713 1.836 4.176 3.111-2.81-1.116-5.803-1.66-8.729-1.043-1.184.251-2.274.72-3.278 1.326-2.658-.035-5.343.505-8.009 2.04 2.895-3.778 7.482-5.99 13.577-6.38zm-7.563-.553c2.34-.903 4.951-.728 7.777.476-.073.005-.144.003-.217.007-6.183.4-10.825 2.663-13.722 6.533-.405.24-.806.51-1.212.796a.24.24 0 0 1-.035.018c2.128-4.116 4.61-6.75 7.409-7.83zm-.025-.067c-2.833 1.096-5.335 3.764-7.483 7.944-2.32 1.105-4.118 2.802-4.922 5.32-.073.224-.127.447-.188.672a11.133 11.133 0 0 0-.685 3.263 20.715 20.715 0 0 0-.196 2.754c0 4.326 1.36 8.368 3.957 11.345.362.41.747.794 1.139 1.15 2.65 4.061 6.745 6.556 11.286 6.832.961.06 2.15-.193 3.515-.68 4.16.325 8.84-1.724 13.686-4.967a70.443 70.443 0 0 0 8.663-5.471 76.154 76.154 0 0 0 2.67-1.337l2.99-1.561c2.11 1.239 4.275 2.342 6.513 3.203l.22.098c6.739 7.68 15.609 14.32 22.326 11.78.192-.072.375-.157.56-.234 3.316-.12 6.757-1.375 9.932-3.714 3.124-2.307 5.532-5.321 6.948-8.53 1.594-2.166 2.63-5.216 2.63-8.27 0-.106 0-.218-.003-.325-.142-5.712-3.754-10.073-9.916-11.961-1.73-.53-3.552-.777-5.433-.788-1.87-2.319-4.37-4.043-7.695-4.073-8.388-.08-17.085 7.088-25.498 14.016-.15.126-.298.245-.446.37l-1.841-1.295a48.424 48.424 0 0 0-4.239-2.585c-1.408-1.529-2.854-3.009-4.342-4.377-5.974-5.486-11.41-8.187-16.168-8.039-2.901-1.276-5.581-1.466-7.98-.54z"/>
        <path d="M383.992 11.686c6.844 2.077 11.561 6.13 12.613 10.844.807 3.61-.636 7.289-4.17 10.644-5.005 4.744-13.489 3.098-19.724.881-7.844-2.789-15.535-7.601-20.113-11.17a15.754 15.754 0 0 0-.583-.44c13.137-6.525 26.318-12.474 31.977-10.759m-63.181 24.461c-4.7-.087-9.319-3.43-11.236-8.128-1.85-4.536-.828-9.467 2.81-13.525 4.779-5.329 13.72-3.89 20.379-1.746 7.388 2.38 14.86 6.568 19.074 9.682-2.38 1.18-4.758 2.38-7.083 3.555-10.861 5.49-20.245 10.232-23.944 10.162m-8.492-21.72c-3.667 4.09-4.694 9.056-2.83 13.635 1.93 4.728 6.584 8.094 11.322 8.18 3.72.069 13.111-4.674 23.983-10.17 2.345-1.184 4.733-2.389 7.13-3.578l.617.464c4.583 3.58 12.285 8.395 20.137 11.19 6.26 2.223 14.783 3.873 19.818-.905 3.563-3.376 5.017-7.09 4.201-10.736-1.061-4.747-5.8-8.827-12.677-10.916-5.696-1.726-18.926 4.246-32.092 10.791-4.21-3.125-11.71-7.334-19.136-9.726-6.685-2.156-15.66-3.595-20.473 1.771"/>
        <path d="M385.42 10.192c7.07 2.064 12.093 6.26 13.118 10.951.783 3.575-.725 7.217-4.354 10.536-5.194 4.745-14.005 3.1-20.477.882-8.145-2.789-16.127-7.598-20.88-11.173-.187-.14-.394-.287-.601-.433 13.637-6.528 27.32-12.478 33.195-10.763m-65.586 24.463c-5.004-.092-9.841-3.535-11.768-8.379-1.048-2.627-2.04-7.836 3.02-13.276 4.964-5.33 14.245-3.891 21.159-1.745 7.67 2.378 15.422 6.564 19.799 9.681-2.47 1.18-4.937 2.38-7.356 3.557-11.276 5.486-21.014 10.228-24.854 10.162m-8.814-21.72c-5.097 5.477-4.095 10.733-3.043 13.379 1.944 4.876 6.819 8.345 11.857 8.434 3.858.068 13.608-4.674 24.895-10.168 2.432-1.185 4.917-2.392 7.399-3.582.221.158.44.315.641.469 4.763 3.577 12.757 8.395 20.906 11.186 6.5 2.226 15.342 3.874 20.57-.901 3.657-3.34 5.172-7.018 4.384-10.632-1.033-4.722-6.085-8.948-13.181-11.018-5.913-1.726-19.645 4.244-33.31 10.79-4.371-3.128-12.16-7.338-19.868-9.73-6.939-2.151-16.256-3.594-21.25 1.773"/>
        <path d="M384.781 10.25c7.063 2.195 11.952 6.485 13.077 11.468.876 3.874-.618 7.823-4.314 11.42-5.194 5.055-14 3.301-20.475.938-8.142-2.97-16.123-8.094-20.88-11.897-.19-.152-.398-.31-.605-.468 13.637-6.953 27.325-13.29 33.197-11.462m-65.586 26.055c-4.79-.09-9.553-3.572-11.584-8.46-2.035-4.893-.997-10.216 2.84-14.605 4.96-5.678 14.241-4.146 21.152-1.86 7.675 2.539 15.433 6.996 19.807 10.313a1266.35 1266.35 0 0 0-7.359 3.793c-11.276 5.846-21.015 10.893-24.856 10.819m-8.812-23.132c-3.86 4.42-4.905 9.78-2.86 14.708 2.046 4.926 6.844 8.431 11.672 8.52 3.863.076 13.61-4.979 24.9-10.828 2.432-1.262 4.913-2.548 7.396-3.812.22.167.44.334.641.494 4.761 3.812 12.755 8.94 20.906 11.914 6.498 2.372 15.34 4.128 20.571-.958 3.721-3.625 5.219-7.605 4.342-11.515-1.139-5.02-6.05-9.332-13.142-11.538-5.911-1.84-19.642 4.52-33.307 11.488-4.372-3.326-12.164-7.813-19.871-10.358-6.939-2.294-16.254-3.827-21.248 1.885"/>
        <path d="M361.252 20.168c11.179-5.775 20.833-10.76 24.638-10.688 4.763.092 9.488 3.539 11.498 8.387 1.998 4.824.968 10.07-2.828 14.396-4.914 5.607-14.114 4.095-20.965 1.838-7.61-2.506-15.295-6.912-19.633-10.189 2.448-1.245 4.897-2.504 7.29-3.744m-40.375 15.047c-7.004-2.171-11.852-6.412-12.965-11.34-.86-3.82.62-7.717 4.28-11.267 5.149-4.994 13.879-3.26 20.295-.928 8.074 2.937 15.984 7.996 20.7 11.755.187.149.392.305.594.462-13.51 6.864-27.083 13.125-32.904 11.318m-8.748-22.678c-3.688 3.576-5.176 7.505-4.305 11.361 1.12 4.964 5.99 9.228 13.028 11.412 5.86 1.818 19.47-4.467 33.017-11.348 4.333 3.284 12.056 7.715 19.695 10.229 6.879 2.268 16.116 3.782 21.069-1.861 3.815-4.358 4.851-9.642 2.839-14.502-2.02-4.882-6.783-8.353-11.577-8.445-3.83-.071-13.493 4.919-24.683 10.7-2.411 1.247-4.87 2.516-7.332 3.764-.218-.167-.44-.331-.637-.49-4.72-3.764-12.641-8.828-20.727-11.767-6.439-2.342-15.205-4.078-20.387.947"/>
        <path d="M372.763 11.689c6.935-2.047 16.188-3.224 20.873 2.797 3.696 4.747 4.465 10.331 2.11 15.32-2.287 4.846-6.993 8.03-11.7 7.923-3.805-.085-13.247-5.667-24.181-12.124-2.343-1.382-4.74-2.797-7.133-4.192 4.465-3.21 12.327-7.45 20.03-9.724M310.54 31.357c-3.554-3.878-4.863-8.02-3.787-11.981 1.36-5.002 6.366-9.147 13.382-11.083 5.894-1.622 19.198 5.44 32.425 13.131-.216.154-.427.308-.621.456-4.864 3.694-12.974 8.603-21.164 11.3-6.505 2.146-15.298 3.569-20.235-1.823m9.572-23.156c-7.048 1.942-12.078 6.109-13.45 11.148-1.084 3.996.236 8.172 3.81 12.075 4.975 5.426 13.803 4 20.335 1.848 8.196-2.702 16.313-7.616 21.186-11.312.206-.156.43-.321.656-.483 2.409 1.4 4.812 2.823 7.17 4.213 10.946 6.464 20.398 12.047 24.224 12.136 4.749.106 9.485-3.098 11.789-7.98 2.371-5.024 1.598-10.646-2.122-15.424-4.716-6.058-14.008-4.88-20.976-2.825-7.732 2.282-15.628 6.545-20.092 9.765-13.254-7.707-26.6-14.795-32.53-13.161"/>
        <path d="M371.942 12.104c6.901-2.17 16.134-3.512 20.915 2.423 3.775 4.68 4.637 10.25 2.363 15.281-2.206 4.886-6.856 8.156-11.567 8.13-3.807-.016-13.339-5.425-24.379-11.688a1031.195 1031.195 0 0 0-7.203-4.064c4.408-3.292 12.204-7.67 19.871-10.082M310.048 32.88c-3.613-3.813-4.99-7.933-3.98-11.912 1.278-5.028 6.21-9.26 13.2-11.32 5.865-1.73 19.281 5.098 32.632 12.55-.21.158-.419.317-.613.466-4.8 3.782-12.831 8.833-20.968 11.678-6.475 2.26-15.24 3.841-20.271-1.462m9.194-23.324c-7.018 2.067-11.978 6.325-13.263 11.388-1.02 4.014.365 8.164 4.005 12.005 5.063 5.335 13.868 3.752 20.361 1.483 8.15-2.847 16.193-7.903 21-11.69.203-.159.424-.325.644-.494 2.432 1.36 4.864 2.737 7.245 4.084 11.046 6.271 20.587 11.686 24.415 11.703 4.75.024 9.434-3.262 11.658-8.188 2.286-5.062 1.421-10.67-2.38-15.38-4.809-5.974-14.084-4.633-21.014-2.455-7.697 2.422-15.52 6.823-19.93 10.123-13.38-7.47-26.84-14.318-32.741-12.58"/>
        <path d="M359.676 18.593c10.616-5.61 19.788-10.453 23.406-10.384 4.448.085 8.913 3.37 10.85 7.982 1.988 4.735 1.037 9.892-2.617 14.151-4.672 5.446-13.41 3.977-19.919 1.787-7.223-2.434-14.53-6.713-18.644-9.899a968.343 968.343 0 0 0 6.924-3.637m-38.36 14.618c-6.614-2.097-11.213-6.187-12.298-10.948-.852-3.732.55-7.544 4.051-11.016 4.89-4.849 13.181-3.163 19.276-.898 7.67 2.85 15.185 7.766 19.664 11.416.178.146.375.297.567.448-12.84 6.668-25.726 12.752-31.26 10.998m-8.31-22.034c-3.526 3.497-4.94 7.34-4.075 11.111 1.092 4.79 5.713 8.906 12.36 11.018 5.568 1.765 18.497-4.343 31.367-11.027 4.115 3.193 11.454 7.495 18.711 9.942 6.536 2.198 15.313 3.672 20.015-1.815 3.677-4.288 4.64-9.483 2.631-14.253-1.951-4.646-6.448-7.955-10.933-8.042-3.638-.069-12.82 4.78-23.446 10.398-2.291 1.208-4.628 2.44-6.967 3.656a21.37 21.37 0 0 1-.6-.478c-4.488-3.653-12.012-8.576-19.693-11.43-6.118-2.276-14.446-3.963-19.37.92"/>
        <path d="M359.243 19.769c11.023-5.61 20.54-10.453 24.299-10.385 4.744.092 9.42 3.484 11.38 8.256 1.905 4.652.875 9.712-2.832 13.878-4.85 5.446-13.921 3.978-20.682 1.784-7.497-2.433-15.077-6.711-19.354-9.896 2.415-1.208 4.822-2.436 7.189-3.637m-39.816 14.62c-6.931-2.12-11.716-6.254-12.793-11.064-.83-3.696.632-7.468 4.23-10.901 5.076-4.85 13.683-3.167 20.01-.9 7.963 2.85 15.767 7.765 20.416 11.418.18.143.387.294.586.445-13.327 6.673-26.708 12.752-32.45 11.001m-8.625-22.036c-3.623 3.46-5.093 7.263-4.258 10.997 1.084 4.84 5.89 9.005 12.859 11.128 5.777 1.768 19.201-4.338 32.558-11.023 4.273 3.191 11.89 7.498 19.423 9.941 6.783 2.201 15.89 3.672 20.772-1.811 3.735-4.197 4.775-9.292 2.85-13.986-1.969-4.802-6.685-8.22-11.463-8.31-3.778-.07-13.308 4.778-24.34 10.395-2.376 1.21-4.804 2.445-7.23 3.658-.217-.162-.432-.32-.628-.478-4.655-3.655-12.467-8.576-20.437-11.432-6.352-2.275-14.998-3.961-20.106.921"/>
        <path d="M384.548 9.698c6.674 2.21 11.36 6.515 12.523 11.519.936 4.025-.484 8.132-4.1 11.881-4.992 5.165-13.458 3.375-19.679.96-7.828-3.037-15.497-8.275-20.07-12.163a112.05 112.05 0 0 0-.583-.48c13.103-7.106 26.263-13.584 31.91-11.717M321.5 36.334c-4.468-.09-8.865-3.373-10.935-8.17-2.22-5.134-1.297-10.751 2.53-15.41 4.77-5.8 13.69-4.236 20.33-1.902 7.382 2.593 14.84 7.155 19.042 10.544-2.376 1.29-4.75 2.594-7.073 3.877-10.84 5.975-20.202 11.137-23.894 11.061m-8.473-23.643c-3.855 4.688-4.781 10.342-2.55 15.514 2.09 4.83 6.517 8.134 11.023 8.224 3.717.076 13.085-5.088 23.938-11.07 2.336-1.288 4.719-2.6 7.106-3.896.214.17.424.344.618.51 4.575 3.893 12.26 9.135 20.098 12.176 6.245 2.423 14.747 4.216 19.775-.984 3.645-3.768 5.069-7.908 4.126-11.97-1.172-5.038-5.879-9.368-12.586-11.59-5.685-1.88-18.882 4.622-32.021 11.744-4.201-3.4-11.687-7.986-19.098-10.588-6.669-2.344-15.628-3.912-20.43 1.93M11.193 37.19C5.078 37.19 1 34.043 1 30.435V15.718c0-3.614 4.078-6.755 10.193-6.755 3.94 0 6.826.747 8.808 1.858v3.677c-1.676-.747-4.803-2.075-8.808-2.075-3.997 0-5.94 2.003-6.812 3.257v14.793c.871 1.253 2.815 3.25 6.812 3.25 4.005 0 7.132-1.322 8.808-2.077v3.686c-1.982 1.111-4.869 1.858-8.808 1.858M34.127 14.89l-4.793 11.36h9.56l-4.767-11.36zm8.983 21.298l-2.715-6.463H27.87l-2.716 6.463c-.87 2.04-3.897.713-3.024-1.357l10.475-24.794c.24-.61.762-1.074 1.523-1.074.734 0 1.285.464 1.532 1.074L46.135 34.83c.869 2.07-2.155 3.397-3.025 1.357zM57.455 37.19c-3.897 0-6.782-.747-8.801-1.858v-3.686c1.662.755 4.833 2.077 8.801 2.077 4.005 0 5.986-1.997 6.82-3.25v-3.824c-.457-.363-3.862-1.256-4.18-1.328l-7.233-1.637c-1.951-.428-4.555-1.256-4.555-3.825v-4.141c0-3.614 4.098-6.755 10.22-6.755 3.895 0 6.793.747 8.802 1.858v3.677c-1.663-.747-4.825-2.075-8.801-2.075-3.997 0-5.985 2.003-6.819 3.257v3.711c.451.324 3.858 1.251 4.185 1.325l7.235 1.638c1.944.433 4.554 1.256 4.554 3.795v4.286c0 3.608-4.105 6.755-10.228 6.755M81.297 14.89l-4.795 11.36h9.567l-4.772-11.36zm8.982 21.298l-2.714-6.463H75.037l-2.717 6.463c-.867 2.04-3.894.713-3.023-1.357l10.47-24.794c.246-.61.77-1.074 1.53-1.074.733 0 1.283.464 1.529 1.074L93.304 34.83c.87 2.07-2.164 3.397-3.025 1.357zM122.392 12.75h-10.587v20.653h10.587c1.972-1.575 4.482-4.614 4.482-10.33 0-5.718-2.51-8.756-4.482-10.323m-.285 24.15H108.44V9.247h13.667c4.702 0 8.314 6.862 8.314 13.827 0 6.97-3.612 13.828-8.314 13.828M150.784 15.68c-.863-1.255-2.817-3.257-6.848-3.257-4.004 0-5.95 2.002-6.82 3.258v14.79c.87 1.255 2.816 3.252 6.82 3.252 4.031 0 5.985-1.997 6.848-3.252v-14.79zm-6.848 21.51c-6.124 0-10.193-3.148-10.193-6.754V15.718c0-3.614 4.069-6.755 10.193-6.755 6.16 0 10.229 3.141 10.229 6.755v14.718c0 3.606-4.069 6.755-10.229 6.755zM179.122 37.19c-3.894 0-6.776-.747-8.79-1.858v-3.686c1.666.755 4.83 2.077 8.79 2.077 4.005 0 5.994-1.997 6.828-3.25v-3.824c-.457-.363-3.868-1.256-4.179-1.328l-7.239-1.637c-1.945-.428-4.557-1.256-4.557-3.825v-4.141c0-3.614 4.106-6.755 10.229-6.755 3.896 0 6.784.747 8.808 1.858v3.677c-1.669-.747-4.847-2.075-8.808-2.075-3.997 0-5.985 2.003-6.82 3.257v3.711c.451.324 3.867 1.251 4.172 1.325l7.24 1.638c1.951.433 4.555 1.256 4.555 3.795v4.286c0 3.608-4.1 6.755-10.229 6.755M202.958 14.89l-4.802 11.36h9.57l-4.768-11.36zm8.982 21.298l-2.722-6.463h-12.52l-2.716 6.463c-.867 2.04-3.9.713-3.032-1.357l10.478-24.794c.246-.61.769-1.074 1.53-1.074.733 0 1.292.464 1.53 1.074l10.47 24.794c.875 2.07-2.154 3.397-3.018 1.357zM233.522 24.829h-11.614v8.574h11.614c1.08-1.038 1.843-2.075 1.843-4.367 0-2.251-.762-3.179-1.843-4.207m-.9-12.08h-10.714v8.573h10.955c.9-1.07 1.567-2.322 1.567-4.43 0-2.249-.735-3.105-1.807-4.143m.523 24.151h-14.62V10.993c0-.957.733-1.747 1.669-1.747h12.008c3.62 0 5.635 4.143 5.635 7.646 0 1.932-.593 3.997-1.666 5.717 1.666 1.608 2.568 4.005 2.568 6.427 0 3.475-1.982 7.864-5.594 7.864M242.555 36.9V10.993c0-.957.762-1.748 1.699-1.748h15.27v3.504H245.93v8.573h11.89c.942 0 1.704.792 1.704 1.752 0 .964-.762 1.754-1.705 1.754h-11.89v8.575h13.595V36.9h-16.969zM279.85 12.75h-12.148v9.75h12.148c1.079-1.07 1.776-2.393 1.776-4.823 0-2.43-.697-3.89-1.776-4.927zm2.435 24.15l-8.139-10.933h-6.444v9.467c0 .965-.76 1.756-1.702 1.756-.944 0-1.67-.79-1.67-1.756V9.246h15.344c3.823 0 5.354 4.967 5.354 8.431 0 3.466-1.531 8.29-5.354 8.29h-1.218L286.56 36.9h-4.275z"/>
    </g>
</svg>
