<svg xmlns="http://www.w3.org/2000/svg" width="40" height="40" viewBox="0 0 40 40">
    <path fill="#FFF" fill-rule="nonzero" stroke="#FFF" d="M13.46 31.694c.406.315.902.586 1.534.857a9.21 9.21 0 0 0 3.382.631h13.035c1.534 0 2.796-1.218 2.796-2.751 0-.722-.27-1.398-.766-1.895 1.353-.18 2.435-1.353 2.435-2.75a2.64 2.64 0 0 0-.947-2.03 2.75 2.75 0 0 0 1.76-2.571 2.64 2.64 0 0 0-.948-2.03 2.75 2.75 0 0 0 1.759-2.57c0-1.534-1.263-2.752-2.796-2.752H24.96c.993-3.293.993-5.818 0-7.532-.857-1.444-2.12-1.76-2.345-1.804-.18-.046-.902-.226-1.624.27-.766.541-1.172 1.669-1.172 3.383 0 3.067-4.826 5.683-6.36 6.495v-.136H2.5v17.906a3.138 3.138 0 0 0 3.157 3.158h7.803v-3.88zm7.307-23.59c0-1.713.406-2.39.767-2.615.405-.27.811-.135.856-.135h.046s1.037.225 1.759 1.398c.631 1.082 1.127 3.247-.271 7.397l-.18.586H34.839c1.037 0 1.894.812 1.894 1.85 0 1.037-.857 1.848-1.894 1.848H30.87c-.27 0-.451.18-.451.451s.18.451.45.451h3.113c1.037 0 1.894.812 1.894 1.85 0 1.037-.857 1.849-1.894 1.849H30.419c-.27 0-.451.18-.451.451 0 .27.18.451.45.451h2.707c1.037 0 1.894.812 1.894 1.85 0 1.037-.857 1.848-1.894 1.848h-3.112c-.27 0-.451.18-.451.451s.18.451.45.451h1.444c1.038 0 1.895.812 1.895 1.85 0 1.037-.857 1.849-1.895 1.849h-13.08c-1.127 0-2.165-.18-3.067-.541-.902-.361-1.533-.812-1.759-1.263a.097.097 0 0 0-.09-.09V15.59c1.037-.495 7.307-3.562 7.307-7.486zM12.558 34.58h-6.9a2.233 2.233 0 0 1-2.256-2.255V15.321h9.156v19.26z"/>
</svg>
