<svg xmlns="http://www.w3.org/2000/svg" width="135" height="135" viewBox="0 0 135 135">
    <g fill="none" fill-rule="evenodd" stroke="#FFF" stroke-width="2" transform="translate(2.5 2)">
        <circle cx="64.941" cy="65.296" r="64.853" fill="#0083FE" fill-opacity=".71"/>
        <path fill="#FFF" fill-rule="nonzero" stroke-linecap="round" stroke-linejoin="round" d="M95.35 71.033a32.285 32.285 0 0 0 1.7-10.341c0-17.934-14.59-32.522-32.523-32.522-17.933 0-32.523 14.588-32.523 32.522 0 3.601.6 7.064 1.687 10.302a14.048 14.048 0 0 0-4.34 10.157c0 7.769 6.32 14.09 14.09 14.09h7.5V67.06h-7.5c-1.748 0-3.42.323-4.966.906a26.87 26.87 0 0 1-1.004-7.276c0-14.919 12.137-27.056 27.056-27.056s27.057 12.138 27.057 27.056c0 2.529-.357 4.974-1.01 7.296a14.01 14.01 0 0 0-5.015-.925h-7.5V95.24h7.5c7.77 0 14.09-6.32 14.09-14.09 0-3.966-1.652-7.553-4.299-10.117z"/>
    </g>
</svg>
