<svg xmlns="http://www.w3.org/2000/svg" width="19" height="19" viewBox="0 0 19 19">
    <g fill="#FFF" fill-rule="nonzero">
        <path d="M9.585 1.67c-4.354 0-7.884 3.505-7.884 7.83s3.53 7.83 7.884 7.83c4.354 0 7.884-3.505 7.884-7.83-.004-4.323-3.531-7.826-7.884-7.83zm0 14.69c-3.815 0-6.908-3.071-6.908-6.86S5.77 2.64 9.585 2.64c3.815 0 6.908 3.071 6.908 6.86-.004 3.787-3.095 6.857-6.908 6.86z"/>
        <path d="M12.922 9.258h-2.93V5.864a.487.487 0 0 0-.487-.485.487.487 0 0 0-.489.485v3.878c0 .268.219.485.489.485h3.417c.27 0 .488-.217.488-.485a.487.487 0 0 0-.488-.484z"/>
    </g>
</svg>
